<svg xmlns="http://www.w3.org/2000/svg" xmlns:xlink="http://www.w3.org/1999/xlink" width="623.853" height="531.091" viewBox="0 0 623.853 531.091">
  <defs>
    <clipPath id="clip-path">
      <rect id="Rectángulo_39204" data-name="Rectángulo 39204" width="160.033" height="60.616" fill="none"/>
    </clipPath>
    <clipPath id="clip-path-2">
      <rect id="Rectángulo_39205" data-name="Rectángulo 39205" width="0.968" height="2.832" fill="none"/>
    </clipPath>
    <clipPath id="clip-path-3">
      <rect id="Rectángulo_39211" data-name="Rectángulo 39211" width="190.7" height="58.125" fill="none"/>
    </clipPath>
    <filter id="Trazado_149944" x="368.926" y="100.45" width="109.459" height="109.46" filterUnits="userSpaceOnUse">
      <feOffset dx="5" dy="5" input="SourceAlpha"/>
      <feGaussianBlur stdDeviation="7.5" result="blur"/>
      <feFlood flood-opacity="0.043"/>
      <feComposite operator="in" in2="blur"/>
      <feComposite in="SourceGraphic"/>
    </filter>
    <filter id="Trazado_150242" x="422.926" y="161.45" width="109.459" height="109.46" filterUnits="userSpaceOnUse">
      <feOffset dx="5" dy="5" input="SourceAlpha"/>
      <feGaussianBlur stdDeviation="7.5" result="blur-2"/>
      <feFlood flood-opacity="0.043"/>
      <feComposite operator="in" in2="blur-2"/>
      <feComposite in="SourceGraphic"/>
    </filter>
    <filter id="Trazado_150243" x="368.926" y="217.622" width="109.459" height="109.46" filterUnits="userSpaceOnUse">
      <feOffset dx="5" dy="5" input="SourceAlpha"/>
      <feGaussianBlur stdDeviation="7.5" result="blur-3"/>
      <feFlood flood-opacity="0.043"/>
      <feComposite operator="in" in2="blur-3"/>
      <feComposite in="SourceGraphic"/>
    </filter>
    <filter id="Trazado_150244" x="422.589" y="270.721" width="109.459" height="109.46" filterUnits="userSpaceOnUse">
      <feOffset dx="5" dy="5" input="SourceAlpha"/>
      <feGaussianBlur stdDeviation="7.5" result="blur-4"/>
      <feFlood flood-opacity="0.043"/>
      <feComposite operator="in" in2="blur-4"/>
      <feComposite in="SourceGraphic"/>
    </filter>
    <filter id="Trazado_150245" x="368.926" y="331.181" width="109.459" height="109.46" filterUnits="userSpaceOnUse">
      <feOffset dx="5" dy="5" input="SourceAlpha"/>
      <feGaussianBlur stdDeviation="7.5" result="blur-5"/>
      <feFlood flood-opacity="0.043"/>
      <feComposite operator="in" in2="blur-5"/>
      <feComposite in="SourceGraphic"/>
    </filter>
  </defs>
  <g id="Grupo_145036" data-name="Grupo 145036" transform="translate(-488.074 -2190.001)">
    <g id="Grupo_145023" data-name="Grupo 145023">
      <rect id="Rectángulo_39188" data-name="Rectángulo 39188" width="342.416" height="448.067" transform="translate(519.509 2285.588) rotate(-16.21)" fill="#e88f00"/>
      <rect id="Rectángulo_39189" data-name="Rectángulo 39189" width="342.416" height="448.067" transform="translate(501.451 2290.838) rotate(-16.21)" fill="#ffde96"/>
      <path id="Trazado_150153" data-name="Trazado 150153" d="M164.534,532.409l328.8-95.588L368.257,6.567Z" transform="translate(461.997 2188.682)" fill="#fcb315"/>
      <path id="Trazado_150154" data-name="Trazado 150154" d="M307.794,34.151,354.471,59.8l74.383,40.876,17.056,9.372c2.346,1.289,4.179-2.434,1.845-3.716l-46.677-25.65L326.694,39.807l-17.056-9.372c-2.345-1.289-4.179,2.434-1.845,3.716" transform="translate(433.478 2183.948)" fill="#232323"/>
    </g>
    <g id="Grupo_145024" data-name="Grupo 145024" transform="matrix(0.999, 0.035, -0.035, 0.999, 87.042, -26.409)">
      <path id="Trazado_150155" data-name="Trazado 150155" d="M541.677,405.39l-25.65,46.677L475.15,526.45l-9.372,17.055c-1.289,2.346,2.434,4.179,3.716,1.845l25.651-46.677,40.876-74.383,9.372-17.055c1.289-2.345-2.433-4.179-3.716-1.845" transform="translate(401.625 2108.902)" fill="#232323"/>
      <path id="Trazado_150156" data-name="Trazado 150156" d="M596.9,482.292,43.237,524.983a14.423,14.423,0,0,1-15.489-13.272L1.108,166.22A14.423,14.423,0,0,1,14.38,150.73l553.661-42.691a14.423,14.423,0,0,1,15.489,13.272L610.17,466.8A14.423,14.423,0,0,1,596.9,482.292" transform="translate(494.787 2168.338)" fill="#2524de"/>
      <path id="Trazado_150157" data-name="Trazado 150157" d="M595.837,470.47l-141.4,10.906L275.6,495.163l-233.43,18a14.423,14.423,0,0,1-15.488-13.272L.042,154.4a14.43,14.43,0,0,1,13.272-15.488L566.978,96.22a14.413,14.413,0,0,1,15.487,13.272l26.644,345.49a14.423,14.423,0,0,1-13.272,15.488" transform="translate(495 2170.708)" fill="#4b4aef"/>
      <rect id="Rectángulo_39190" data-name="Rectángulo 39190" width="45.291" height="24.388" transform="matrix(0.997, -0.077, 0.077, 0.997, 1015.604, 2359.248)" fill="#2524de"/>
      <path id="Trazado_150158" data-name="Trazado 150158" d="M50.132,468.765l-2.941-.865-1.373-.4a10.7,10.7,0,0,0-13.282,7.247l-.061.208a10.7,10.7,0,0,0,7.247,13.281l1.373.4,2.941.865,55.094,16.2,11.636,3.421.558-1.9,87.953,25.855,23.46-2.306-18.479-14.636-87.954-25.855.558-1.9-11.637-3.421L62.5,472.4l.9-3.078-12.372-3.637Z" transform="translate(488.573 2096.589)" fill="#3c2f3f"/>
      <rect id="Rectángulo_39191" data-name="Rectángulo 39191" width="45.291" height="24.388" transform="matrix(0.997, -0.077, 0.077, 0.997, 1018.818, 2400.932)" fill="#2524de"/>
      <rect id="Rectángulo_39192" data-name="Rectángulo 39192" width="45.291" height="24.387" transform="matrix(0.997, -0.077, 0.077, 0.997, 1022.032, 2442.613)" fill="#2524de"/>
      <rect id="Rectángulo_39193" data-name="Rectángulo 39193" width="45.291" height="24.387" transform="matrix(0.997, -0.077, 0.077, 0.997, 1025.246, 2484.298)" fill="#2524de"/>
      <rect id="Rectángulo_39194" data-name="Rectángulo 39194" width="45.291" height="24.388" transform="translate(1028.46 2525.98) rotate(-4.41)" fill="#2524de"/>
      <rect id="Rectángulo_39196" data-name="Rectángulo 39196" width="45.291" height="24.388" transform="matrix(0.997, -0.077, 0.077, 0.997, 506.5, 2354.813)" fill="#2524de"/>
      <rect id="Rectángulo_39197" data-name="Rectángulo 39197" width="45.291" height="24.388" transform="matrix(0.997, -0.077, 0.077, 0.997, 1020.257, 2352.17)" fill="#ffde96"/>
      <rect id="Rectángulo_39198" data-name="Rectángulo 39198" width="45.291" height="24.387" transform="matrix(0.997, -0.077, 0.077, 0.997, 1023.471, 2393.854)" fill="#fcb315"/>
      <rect id="Rectángulo_39199" data-name="Rectángulo 39199" width="45.291" height="24.388" transform="matrix(0.997, -0.077, 0.077, 0.997, 1026.685, 2435.537)" fill="#a4a3ff"/>
      <rect id="Rectángulo_39200" data-name="Rectángulo 39200" width="45.291" height="24.388" transform="matrix(0.997, -0.077, 0.077, 0.997, 1029.898, 2477.221)" fill="#7f79fb"/>
      <rect id="Rectángulo_39201" data-name="Rectángulo 39201" width="45.291" height="24.388" transform="translate(1033.113 2518.903) rotate(-4.41)" fill="#acfcff"/>
      <path id="Trazado_150159" data-name="Trazado 150159" d="M567.369,467.905,68.252,506.39c-5.418.034-4.851-7.538-4.982-9.249L36.789,158.523,542.1,119.56l33.479,338.269c.132,1.711-2.756,8.833-8.212,10.076" transform="translate(487.621 2166.019)" fill="#2524de"/>
      <path id="Trazado_150160" data-name="Trazado 150160" d="M575.055,458.789,75.936,497.275a3.107,3.107,0,0,1-3.337-2.859L46.9,161.061a3.107,3.107,0,0,1,2.859-3.337l499.118-38.485a3.107,3.107,0,0,1,3.337,2.859l25.7,333.355a3.107,3.107,0,0,1-2.859,3.337" transform="translate(485.595 2166.084)" fill="#9cafbc"/>
      <rect id="Rectángulo_39203" data-name="Rectángulo 39203" width="45.291" height="24.388" transform="matrix(0.997, -0.077, 0.077, 0.997, 511.634, 2349.457)" fill="#e02dcc"/>
      <path id="Trazado_150161" data-name="Trazado 150161" d="M317.343,472.757,75.271,491.423a3.107,3.107,0,0,1-3.337-2.859l-25.7-333.355a3.107,3.107,0,0,1,2.859-3.337l242.072-18.666a3.107,3.107,0,0,1,3.337,2.859l25.7,333.355a3.107,3.107,0,0,1-2.859,3.337" transform="translate(485.729 2163.283)" fill="#fff"/>
      <path id="Trazado_150162" data-name="Trazado 150162" d="M634.353,453.367,392.281,472.033a3.108,3.108,0,0,1-3.337-2.859l-26.78-338.457a3.107,3.107,0,0,1,2.859-3.337L607.1,108.715a3.107,3.107,0,0,1,3.337,2.86l26.78,338.456a3.107,3.107,0,0,1-2.859,3.337" transform="translate(422.357 2168.195)" fill="#83929b"/>
      <path id="Trazado_150163" data-name="Trazado 150163" d="M638.77,447.974l-66.633,5.136L403.076,466.141l-6.382.5a3.105,3.105,0,0,1-3.339-2.855l-25.7-333.362a3.1,3.1,0,0,1,2.854-3.33l242.078-18.67a3.111,3.111,0,0,1,3.337,2.863l25.7,333.354a3.1,3.1,0,0,1-2.855,3.338" transform="translate(421.255 2168.255)" fill="#fff"/>
      <path id="Trazado_150164" data-name="Trazado 150164" d="M348.207,159.508a6.736,6.736,0,1,1-7.234-6.2,6.736,6.736,0,0,1,7.234,6.2" transform="translate(427.853 2159.252)" fill="#968299"/>
      <path id="Trazado_150165" data-name="Trazado 150165" d="M389.958,156.289a6.736,6.736,0,1,1-7.234-6.2,6.736,6.736,0,0,1,7.234,6.2" transform="translate(419.479 2159.898)" fill="#968299"/>
      <path id="Trazado_150166" data-name="Trazado 150166" d="M347.264,161.792a5.286,5.286,0,1,1-5.677-4.864,5.286,5.286,0,0,1,5.677,4.864" transform="translate(427.462 2158.525)" fill="#3c2f3f"/>
      <path id="Trazado_150167" data-name="Trazado 150167" d="M389.015,158.573a5.286,5.286,0,1,1-5.677-4.864,5.287,5.287,0,0,1,5.677,4.864" transform="translate(419.087 2159.172)" fill="#3c2f3f"/>
      <path id="Trazado_150168" data-name="Trazado 150168" d="M350.783,192.908a6.736,6.736,0,1,1-7.234-6.2,6.736,6.736,0,0,1,7.234,6.2" transform="translate(427.336 2152.553)" fill="#968299"/>
      <path id="Trazado_150169" data-name="Trazado 150169" d="M392.532,189.689a6.736,6.736,0,1,1-7.234-6.2,6.736,6.736,0,0,1,7.234,6.2" transform="translate(418.962 2153.199)" fill="#968299"/>
      <path id="Trazado_150170" data-name="Trazado 150170" d="M349.84,195.192a5.286,5.286,0,1,1-5.677-4.864,5.286,5.286,0,0,1,5.677,4.864" transform="translate(426.945 2151.826)" fill="#3c2f3f"/>
      <path id="Trazado_150171" data-name="Trazado 150171" d="M391.59,191.973a5.286,5.286,0,1,1-5.677-4.864,5.286,5.286,0,0,1,5.677,4.864" transform="translate(418.571 2152.473)" fill="#3c2f3f"/>
      <path id="Trazado_150172" data-name="Trazado 150172" d="M353.358,226.308a6.736,6.736,0,1,1-7.234-6.2,6.736,6.736,0,0,1,7.234,6.2" transform="translate(426.82 2145.854)" fill="#968299"/>
      <path id="Trazado_150173" data-name="Trazado 150173" d="M395.108,223.089a6.736,6.736,0,1,1-7.234-6.2,6.736,6.736,0,0,1,7.234,6.2" transform="translate(418.446 2146.5)" fill="#968299"/>
      <path id="Trazado_150174" data-name="Trazado 150174" d="M352.415,228.592a5.286,5.286,0,1,1-5.677-4.864,5.286,5.286,0,0,1,5.677,4.864" transform="translate(426.428 2145.126)" fill="#3c2f3f"/>
      <path id="Trazado_150175" data-name="Trazado 150175" d="M394.165,225.373a5.286,5.286,0,1,1-5.677-4.864,5.286,5.286,0,0,1,5.677,4.864" transform="translate(418.053 2145.772)" fill="#3c2f3f"/>
      <path id="Trazado_150176" data-name="Trazado 150176" d="M355.933,259.708a6.737,6.737,0,1,1-7.235-6.2,6.737,6.737,0,0,1,7.235,6.2" transform="translate(426.303 2139.154)" fill="#968299"/>
      <path id="Trazado_150177" data-name="Trazado 150177" d="M397.684,256.489a6.736,6.736,0,1,1-7.234-6.2,6.736,6.736,0,0,1,7.234,6.2" transform="translate(417.929 2139.8)" fill="#968299"/>
      <path id="Trazado_150178" data-name="Trazado 150178" d="M354.991,261.992a5.286,5.286,0,1,1-5.677-4.864,5.286,5.286,0,0,1,5.677,4.864" transform="translate(425.911 2138.427)" fill="#3c2f3f"/>
      <path id="Trazado_150179" data-name="Trazado 150179" d="M396.741,258.773a5.286,5.286,0,1,1-5.677-4.864,5.286,5.286,0,0,1,5.677,4.864" transform="translate(417.537 2139.073)" fill="#3c2f3f"/>
      <path id="Trazado_150180" data-name="Trazado 150180" d="M358.508,293.109a6.736,6.736,0,1,1-7.234-6.2,6.736,6.736,0,0,1,7.234,6.2" transform="translate(425.787 2132.454)" fill="#968299"/>
      <path id="Trazado_150181" data-name="Trazado 150181" d="M400.259,289.889a6.736,6.736,0,1,1-7.234-6.2,6.736,6.736,0,0,1,7.234,6.2" transform="translate(417.413 2133.101)" fill="#968299"/>
      <path id="Trazado_150182" data-name="Trazado 150182" d="M357.566,295.392a5.286,5.286,0,1,1-5.677-4.864,5.286,5.286,0,0,1,5.677,4.864" transform="translate(425.395 2131.727)" fill="#3c2f3f"/>
      <path id="Trazado_150183" data-name="Trazado 150183" d="M399.316,292.173a5.286,5.286,0,1,1-5.677-4.864,5.286,5.286,0,0,1,5.677,4.864" transform="translate(417.021 2132.373)" fill="#3c2f3f"/>
      <path id="Trazado_150184" data-name="Trazado 150184" d="M361.083,326.509a6.736,6.736,0,1,1-7.234-6.2,6.736,6.736,0,0,1,7.234,6.2" transform="translate(425.271 2125.754)" fill="#968299"/>
      <path id="Trazado_150185" data-name="Trazado 150185" d="M402.834,323.289a6.737,6.737,0,1,1-7.235-6.2,6.737,6.737,0,0,1,7.235,6.2" transform="translate(416.896 2126.401)" fill="#968299"/>
      <path id="Trazado_150186" data-name="Trazado 150186" d="M360.141,328.793a5.286,5.286,0,1,1-5.677-4.864,5.286,5.286,0,0,1,5.677,4.864" transform="translate(424.879 2125.028)" fill="#3c2f3f"/>
      <path id="Trazado_150187" data-name="Trazado 150187" d="M401.891,325.573a5.286,5.286,0,1,1-5.677-4.864,5.286,5.286,0,0,1,5.677,4.864" transform="translate(416.504 2125.674)" fill="#3c2f3f"/>
      <path id="Trazado_150188" data-name="Trazado 150188" d="M363.638,359.628a6.736,6.736,0,1,1-7.234-6.2,6.736,6.736,0,0,1,7.234,6.2" transform="translate(424.758 2119.111)" fill="#968299"/>
      <path id="Trazado_150189" data-name="Trazado 150189" d="M405.388,356.409a6.736,6.736,0,1,1-7.234-6.2,6.736,6.736,0,0,1,7.234,6.2" transform="translate(416.384 2119.757)" fill="#968299"/>
      <path id="Trazado_150190" data-name="Trazado 150190" d="M362.7,361.912a5.286,5.286,0,1,1-5.677-4.864,5.286,5.286,0,0,1,5.677,4.864" transform="translate(424.366 2118.385)" fill="#3c2f3f"/>
      <path id="Trazado_150191" data-name="Trazado 150191" d="M404.445,358.693a5.286,5.286,0,1,1-5.677-4.864,5.286,5.286,0,0,1,5.677,4.864" transform="translate(415.992 2119.03)" fill="#3c2f3f"/>
      <path id="Trazado_150192" data-name="Trazado 150192" d="M366.213,393.028a6.736,6.736,0,1,1-7.234-6.2,6.736,6.736,0,0,1,7.234,6.2" transform="translate(424.242 2112.412)" fill="#968299"/>
      <path id="Trazado_150193" data-name="Trazado 150193" d="M407.963,389.809a6.736,6.736,0,1,1-7.234-6.2,6.736,6.736,0,0,1,7.234,6.2" transform="translate(415.867 2113.058)" fill="#968299"/>
      <path id="Trazado_150194" data-name="Trazado 150194" d="M365.27,395.312a5.286,5.286,0,1,1-5.677-4.864,5.286,5.286,0,0,1,5.677,4.864" transform="translate(423.85 2111.686)" fill="#3c2f3f"/>
      <path id="Trazado_150195" data-name="Trazado 150195" d="M407.021,392.093a5.286,5.286,0,1,1-5.677-4.864,5.286,5.286,0,0,1,5.677,4.864" transform="translate(415.475 2112.331)" fill="#3c2f3f"/>
      <path id="Trazado_150196" data-name="Trazado 150196" d="M368.788,426.428a6.736,6.736,0,1,1-7.234-6.2,6.736,6.736,0,0,1,7.234,6.2" transform="translate(423.725 2105.713)" fill="#968299"/>
      <path id="Trazado_150197" data-name="Trazado 150197" d="M410.539,423.209a6.736,6.736,0,1,1-7.234-6.2,6.736,6.736,0,0,1,7.234,6.2" transform="translate(415.35 2106.357)" fill="#968299"/>
      <path id="Trazado_150198" data-name="Trazado 150198" d="M367.846,428.712a5.286,5.286,0,1,1-5.677-4.864,5.286,5.286,0,0,1,5.677,4.864" transform="translate(423.333 2104.985)" fill="#3c2f3f"/>
      <path id="Trazado_150199" data-name="Trazado 150199" d="M409.6,425.493a5.286,5.286,0,1,1-5.677-4.864,5.286,5.286,0,0,1,5.677,4.864" transform="translate(414.958 2105.632)" fill="#3c2f3f"/>
      <path id="Trazado_150200" data-name="Trazado 150200" d="M371.364,459.828a6.736,6.736,0,1,1-7.234-6.2,6.736,6.736,0,0,1,7.234,6.2" transform="translate(423.208 2099.014)" fill="#968299"/>
      <path id="Trazado_150201" data-name="Trazado 150201" d="M413.114,456.609a6.736,6.736,0,1,1-7.234-6.2,6.736,6.736,0,0,1,7.234,6.2" transform="translate(414.834 2099.658)" fill="#968299"/>
      <path id="Trazado_150202" data-name="Trazado 150202" d="M370.421,462.112a5.286,5.286,0,1,1-5.677-4.864,5.286,5.286,0,0,1,5.677,4.864" transform="translate(422.816 2098.286)" fill="#3c2f3f"/>
      <path id="Trazado_150203" data-name="Trazado 150203" d="M412.171,458.893a5.286,5.286,0,1,1-5.677-4.864,5.286,5.286,0,0,1,5.677,4.864" transform="translate(414.442 2098.933)" fill="#3c2f3f"/>
      <path id="Trazado_150204" data-name="Trazado 150204" d="M373.939,493.228a6.736,6.736,0,1,1-7.234-6.2,6.736,6.736,0,0,1,7.234,6.2" transform="translate(422.692 2092.313)" fill="#968299"/>
      <path id="Trazado_150205" data-name="Trazado 150205" d="M415.69,490.009a6.736,6.736,0,1,1-7.234-6.2,6.736,6.736,0,0,1,7.234,6.2" transform="translate(414.317 2092.959)" fill="#968299"/>
      <path id="Trazado_150206" data-name="Trazado 150206" d="M373,495.512a5.286,5.286,0,1,1-5.677-4.864A5.287,5.287,0,0,1,373,495.512" transform="translate(422.3 2091.587)" fill="#3c2f3f"/>
      <path id="Trazado_150207" data-name="Trazado 150207" d="M414.747,492.293a5.286,5.286,0,1,1-5.677-4.864,5.286,5.286,0,0,1,5.677,4.864" transform="translate(413.925 2092.232)" fill="#3c2f3f"/>
      <path id="Trazado_150208" data-name="Trazado 150208" d="M376.515,526.629a6.736,6.736,0,1,1-7.234-6.2,6.736,6.736,0,0,1,7.234,6.2" transform="translate(422.175 2085.613)" fill="#968299"/>
      <path id="Trazado_150209" data-name="Trazado 150209" d="M418.264,523.409a6.736,6.736,0,1,1-7.234-6.2,6.736,6.736,0,0,1,7.234,6.2" transform="translate(413.801 2086.259)" fill="#968299"/>
      <path id="Trazado_150210" data-name="Trazado 150210" d="M375.572,528.912a5.286,5.286,0,1,1-5.677-4.864,5.286,5.286,0,0,1,5.677,4.864" transform="translate(421.783 2084.887)" fill="#3c2f3f"/>
      <path id="Trazado_150211" data-name="Trazado 150211" d="M417.322,525.693a5.286,5.286,0,1,1-5.677-4.864,5.286,5.286,0,0,1,5.677,4.864" transform="translate(413.409 2085.533)" fill="#3c2f3f"/>
      <path id="Trazado_150212" data-name="Trazado 150212" d="M344.758,164.161l30.77-2.373c5.123-.395,4.528-8.369-.617-7.973l-30.77,2.373c-5.123.395-4.528,8.369.617,7.973" transform="translate(426.684 2159.15)" fill="#6d7c84"/>
      <path id="Trazado_150213" data-name="Trazado 150213" d="M347.334,197.561l30.77-2.373c5.123-.395,4.528-8.369-.617-7.973l-30.77,2.373c-5.123.395-4.528,8.369.617,7.973" transform="translate(426.167 2152.45)" fill="#6d7c84"/>
      <path id="Trazado_150214" data-name="Trazado 150214" d="M355.965,162.106l13.4-1.034c2.456-.189,2.17-4.011-.3-3.821l-13.4,1.034c-2.456.189-2.17,4.011.3,3.821" transform="translate(424 2158.459)" fill="#c9d9e2"/>
      <path id="Trazado_150215" data-name="Trazado 150215" d="M358.541,195.507l13.4-1.034c2.456-.189,2.17-4.011-.295-3.821l-13.4,1.034a1.917,1.917,0,0,0,.3,3.821" transform="translate(423.483 2151.76)" fill="#c9d9e2"/>
      <path id="Trazado_150216" data-name="Trazado 150216" d="M349.909,230.962l30.77-2.373c5.123-.395,4.529-8.369-.617-7.973l-30.77,2.373c-5.123.395-4.528,8.369.617,7.973" transform="translate(425.65 2145.751)" fill="#6d7c84"/>
      <path id="Trazado_150217" data-name="Trazado 150217" d="M352.484,264.362l30.77-2.373c5.123-.395,4.529-8.369-.617-7.973l-30.77,2.373c-5.123.395-4.528,8.369.617,7.973" transform="translate(425.134 2139.051)" fill="#6d7c84"/>
      <path id="Trazado_150218" data-name="Trazado 150218" d="M361.116,228.907l13.4-1.034c2.456-.189,2.17-4.011-.3-3.821l-13.4,1.034c-2.456.189-2.17,4.011.3,3.821" transform="translate(422.967 2145.06)" fill="#c9d9e2"/>
      <path id="Trazado_150219" data-name="Trazado 150219" d="M363.691,262.307l13.4-1.034c2.456-.189,2.17-4.011-.3-3.821l-13.4,1.034c-2.456.189-2.17,4.012.3,3.821" transform="translate(422.45 2138.36)" fill="#c9d9e2"/>
      <path id="Trazado_150220" data-name="Trazado 150220" d="M354.894,297.775l30.77-2.373c5.123-.395,4.529-8.369-.617-7.973l-30.77,2.373c-5.123.395-4.528,8.369.617,7.973" transform="translate(424.65 2132.349)" fill="#6d7c84"/>
      <path id="Trazado_150221" data-name="Trazado 150221" d="M357.469,331.175l30.77-2.373c5.123-.395,4.529-8.369-.617-7.973l-30.77,2.373c-5.123.395-4.528,8.369.617,7.973" transform="translate(424.134 2125.649)" fill="#6d7c84"/>
      <path id="Trazado_150222" data-name="Trazado 150222" d="M366.1,295.72l13.4-1.034c2.456-.189,2.17-4.011-.3-3.821l-13.4,1.034c-2.456.189-2.17,4.011.3,3.821" transform="translate(421.967 2131.658)" fill="#c9d9e2"/>
      <path id="Trazado_150223" data-name="Trazado 150223" d="M368.676,329.12l13.4-1.034c2.456-.19,2.17-4.011-.3-3.821l-13.4,1.034c-2.456.19-2.171,4.012.3,3.821" transform="translate(421.45 2124.959)" fill="#c9d9e2"/>
      <path id="Trazado_150224" data-name="Trazado 150224" d="M360.045,364.575l30.77-2.373c5.123-.395,4.528-8.369-.617-7.973l-30.77,2.373c-5.123.395-4.528,8.369.617,7.973" transform="translate(423.617 2118.949)" fill="#6d7c84"/>
      <path id="Trazado_150225" data-name="Trazado 150225" d="M362.62,397.975l30.77-2.373c5.123-.395,4.528-8.369-.617-7.973L362,390c-5.123.395-4.528,8.369.617,7.973" transform="translate(423.101 2112.251)" fill="#6d7c84"/>
      <path id="Trazado_150226" data-name="Trazado 150226" d="M371.252,362.52l13.4-1.034c2.456-.189,2.17-4.012-.3-3.821l-13.4,1.034a1.917,1.917,0,0,0,.3,3.821" transform="translate(420.934 2118.26)" fill="#c9d9e2"/>
      <path id="Trazado_150227" data-name="Trazado 150227" d="M373.827,395.92l13.4-1.034c2.456-.189,2.17-4.011-.3-3.821l-13.4,1.034c-2.456.189-2.17,4.011.3,3.821" transform="translate(420.417 2111.56)" fill="#c9d9e2"/>
      <path id="Trazado_150228" data-name="Trazado 150228" d="M364.158,431.172l30.77-2.373c5.123-.395,4.529-8.369-.617-7.973l-30.77,2.373c-5.123.395-4.528,8.369.617,7.973" transform="translate(422.792 2105.592)" fill="#6d7c84"/>
      <path id="Trazado_150229" data-name="Trazado 150229" d="M366.733,464.573,397.5,462.2c5.123-.395,4.529-8.369-.617-7.973l-30.77,2.373c-5.123.395-4.528,8.369.617,7.973" transform="translate(422.275 2098.893)" fill="#6d7c84"/>
      <path id="Trazado_150230" data-name="Trazado 150230" d="M375.365,429.118l13.4-1.034c2.456-.189,2.17-4.011-.3-3.821l-13.4,1.034c-2.456.189-2.17,4.011.3,3.821" transform="translate(420.109 2104.899)" fill="#c9d9e2"/>
      <path id="Trazado_150231" data-name="Trazado 150231" d="M377.94,462.518l13.4-1.034c2.456-.189,2.17-4.011-.3-3.821l-13.4,1.034c-2.456.189-2.17,4.011.3,3.821" transform="translate(419.592 2098.201)" fill="#c9d9e2"/>
      <path id="Trazado_150232" data-name="Trazado 150232" d="M369.309,497.973l30.77-2.373c5.123-.395,4.528-8.369-.617-7.973L368.692,490c-5.123.395-4.528,8.369.617,7.973" transform="translate(421.759 2092.191)" fill="#6d7c84"/>
      <path id="Trazado_150233" data-name="Trazado 150233" d="M371.884,531.373,402.654,529c5.123-.395,4.529-8.369-.617-7.973l-30.77,2.373c-5.123.395-4.528,8.369.617,7.973" transform="translate(421.242 2085.492)" fill="#6d7c84"/>
      <path id="Trazado_150234" data-name="Trazado 150234" d="M380.516,495.918l13.4-1.034c2.456-.189,2.17-4.011-.3-3.821l-13.4,1.034c-2.456.189-2.17,4.012.3,3.821" transform="translate(419.075 2091.501)" fill="#c9d9e2"/>
      <path id="Trazado_150235" data-name="Trazado 150235" d="M383.091,529.318l13.4-1.034c2.456-.189,2.17-4.011-.3-3.821L382.8,525.5c-2.456.189-2.17,4.012.3,3.821" transform="translate(418.559 2084.802)" fill="#c9d9e2"/>
      <line id="Línea_212" data-name="Línea 212" y1="1.172" x2="15.197" transform="translate(545.379 2345.685)" fill="none" stroke="#9cafbc" stroke-miterlimit="10" stroke-width="5.448"/>
      <line id="Línea_213" data-name="Línea 213" y1="1.172" x2="15.197" transform="translate(546.828 2363.044)" fill="none" stroke="#9cafbc" stroke-miterlimit="10" stroke-width="5.448"/>
      <line id="Línea_214" data-name="Línea 214" y1="1.172" x2="15.197" transform="translate(548.002 2380.425)" fill="none" stroke="#9cafbc" stroke-miterlimit="10" stroke-width="5.448"/>
      <line id="Línea_215" data-name="Línea 215" y1="1.172" x2="15.197" transform="translate(549.452 2397.783)" fill="none" stroke="#9cafbc" stroke-miterlimit="10" stroke-width="5.448"/>
      <g id="Grupo_145016" data-name="Grupo 145016" transform="translate(551.303 2569.052)" opacity="0.98" style="mix-blend-mode: multiply;isolation: isolate">
        <g id="Grupo_145015" data-name="Grupo 145015">
          <g id="Grupo_145014" data-name="Grupo 145014" clip-path="url(#clip-path)">
            <path id="Trazado_150236" data-name="Trazado 150236" d="M118.492,510.819l.558-1.9L207,534.778l23.46-2.306-18.479-14.636L124.03,491.98l.557-1.9-11.636-3.421-42.521-12.5,1.777,23.051L106.855,507.4Z" transform="translate(-70.43 -474.162)" fill="#d5d9db"/>
          </g>
        </g>
      </g>
      <g id="Grupo_145019" data-name="Grupo 145019" transform="translate(551.039 2565.633)" opacity="0.5">
        <g id="Grupo_145018" data-name="Grupo 145018">
          <g id="Grupo_145017" data-name="Grupo 145017" clip-path="url(#clip-path-2)">
            <path id="Trazado_150237" data-name="Trazado 150237" d="M70.1,469.884l.218,2.832.75-2.548Z" transform="translate(-70.1 -469.884)" fill="#d5d9db"/>
          </g>
        </g>
      </g>
      <rect id="Rectángulo_39206" data-name="Rectángulo 39206" width="9.171" height="12.896" transform="matrix(0.282, -0.959, 0.959, 0.282, 538.879, 2564.762)" fill="#d14600"/>
      <path id="Trazado_150238" data-name="Trazado 150238" d="M107.548,477.406l-6.1,20.737L42.045,480.679A10.7,10.7,0,0,1,34.8,467.4l.061-.207a10.7,10.7,0,0,1,13.281-7.247Z" transform="translate(488.108 2097.83)" fill="#ff7f00"/>
      <rect id="Rectángulo_39207" data-name="Rectángulo 39207" width="17.66" height="159.638" transform="matrix(0.282, -0.959, 0.959, 0.282, 536.551, 2578.33)" fill="#ff7f00"/>
      <rect id="Rectángulo_39208" data-name="Rectángulo 39208" width="21.614" height="72.62" transform="translate(531.525 2578.913) rotate(-73.619)" fill="#f95900"/>
      <rect id="Rectángulo_39209" data-name="Rectángulo 39209" width="21.614" height="3.065" transform="translate(531.525 2578.912) rotate(-73.619)" fill="#b2a5b5"/>
      <rect id="Rectángulo_39210" data-name="Rectángulo 39210" width="2.299" height="69.554" transform="translate(541.142 2557.066) rotate(-73.618)" fill="#f95900"/>
      <path id="Trazado_150239" data-name="Trazado 150239" d="M243.563,537.836l23.46-2.307-18.48-14.636Z" transform="translate(446.145 2085.516)" fill="#ffc200"/>
      <path id="Trazado_150240" data-name="Trazado 150240" d="M266.554,538.905l5.081-.5-4-3.17Z" transform="translate(441.533 2082.64)" fill="#2f3347"/>
      <line id="Línea_217" data-name="Línea 217" y1="16.943" x2="4.98" transform="translate(689.779 2606.432)" fill="none" stroke="#ffe98f" stroke-miterlimit="10" stroke-width="3.834"/>
      <line id="Línea_218" data-name="Línea 218" y1="16.943" x2="4.98" transform="translate(644.323 2593.068)" fill="none" stroke="#ffe98f" stroke-miterlimit="10" stroke-width="3.834"/>
      <g id="Grupo_145022" data-name="Grupo 145022" transform="translate(522.461 2565.264)" opacity="0.5">
        <g id="Grupo_145021" data-name="Grupo 145021">
          <g id="Grupo_145020" data-name="Grupo 145020" clip-path="url(#clip-path-3)">
            <path id="Trazado_150241" data-name="Trazado 150241" d="M34.788,469.424a10.7,10.7,0,0,0,7.247,13.282l1.372.4,2.941.865,55.094,16.2,11.637,3.421.558-1.9,87.953,25.855,23.46-2.307Z" transform="translate(-34.351 -469.423)" fill="#aa2000"/>
          </g>
        </g>
      </g>
    </g>
    <path id="Trazado_150264" data-name="Trazado 150264" d="M2.468,9.1V13H1.155V3.047H4.826a3.688,3.688,0,0,1,2.56.834,2.827,2.827,0,0,1,.926,2.208,2.79,2.79,0,0,1-.906,2.232A3.853,3.853,0,0,1,4.813,9.1Zm0-1.073H4.826a2.358,2.358,0,0,0,1.613-.5A1.815,1.815,0,0,0,7,6.1a1.876,1.876,0,0,0-.561-1.424A2.209,2.209,0,0,0,4.9,4.12H2.468ZM14.28,13a2.657,2.657,0,0,1-.178-.779A2.822,2.822,0,0,1,12,13.137a2.611,2.611,0,0,1-1.794-.619,2,2,0,0,1-.7-1.569,2.091,2.091,0,0,1,.878-1.794,4.142,4.142,0,0,1,2.471-.639h1.23V7.935a1.42,1.42,0,0,0-.4-1.056,1.593,1.593,0,0,0-1.169-.393,1.844,1.844,0,0,0-1.135.342,1.007,1.007,0,0,0-.458.827H9.652a1.745,1.745,0,0,1,.393-1.07,2.683,2.683,0,0,1,1.066-.817,3.588,3.588,0,0,1,1.48-.3,2.924,2.924,0,0,1,2,.639,2.306,2.306,0,0,1,.752,1.76v3.4a4.162,4.162,0,0,0,.26,1.62V13Zm-2.1-.964a2.223,2.223,0,0,0,1.128-.308,1.861,1.861,0,0,0,.772-.8V9.411h-.991q-2.324,0-2.324,1.36a1.151,1.151,0,0,0,.4.93A1.524,1.524,0,0,0,12.182,12.036Zm8.723-5.3a3.79,3.79,0,0,0-.622-.048,1.667,1.667,0,0,0-1.688,1.06V13H17.329V5.6h1.23l.021.854a1.969,1.969,0,0,1,1.764-.991,1.292,1.292,0,0,1,.561.1ZM26.359,13a2.657,2.657,0,0,1-.178-.779,2.822,2.822,0,0,1-2.105.916,2.611,2.611,0,0,1-1.794-.619,2,2,0,0,1-.7-1.569,2.091,2.091,0,0,1,.878-1.794,4.142,4.142,0,0,1,2.471-.639h1.23V7.935a1.42,1.42,0,0,0-.4-1.056A1.593,1.593,0,0,0,24.6,6.485a1.844,1.844,0,0,0-1.135.342A1.007,1.007,0,0,0,23,7.654H21.731a1.745,1.745,0,0,1,.393-1.07,2.683,2.683,0,0,1,1.066-.817,3.588,3.588,0,0,1,1.48-.3,2.924,2.924,0,0,1,2,.639,2.306,2.306,0,0,1,.752,1.76v3.4a4.162,4.162,0,0,0,.26,1.62V13Zm-2.1-.964a2.223,2.223,0,0,0,1.128-.308,1.861,1.861,0,0,0,.772-.8V9.411H25.17q-2.324,0-2.324,1.36a1.151,1.151,0,0,0,.4.93A1.524,1.524,0,0,0,24.261,12.036ZM34.248,13H32.983V2.5h1.265Zm6.59,0a2.657,2.657,0,0,1-.178-.779,2.822,2.822,0,0,1-2.105.916,2.611,2.611,0,0,1-1.794-.619,2,2,0,0,1-.7-1.569,2.091,2.091,0,0,1,.878-1.794,4.142,4.142,0,0,1,2.471-.639h1.23V7.935a1.42,1.42,0,0,0-.4-1.056,1.593,1.593,0,0,0-1.169-.393,1.844,1.844,0,0,0-1.135.342,1.007,1.007,0,0,0-.458.827H36.21a1.745,1.745,0,0,1,.393-1.07,2.683,2.683,0,0,1,1.066-.817,3.588,3.588,0,0,1,1.48-.3,2.924,2.924,0,0,1,2,.639,2.306,2.306,0,0,1,.752,1.76v3.4a4.162,4.162,0,0,0,.26,1.62V13Zm-2.1-.964a2.223,2.223,0,0,0,1.128-.308,1.861,1.861,0,0,0,.772-.8V9.411h-.991q-2.324,0-2.324,1.36a1.151,1.151,0,0,0,.4.93A1.524,1.524,0,0,0,38.739,12.036Zm12.188-5.3a3.79,3.79,0,0,0-.622-.048,1.667,1.667,0,0,0-1.688,1.06V13H47.353V5.6h1.23l.021.854a1.969,1.969,0,0,1,1.764-.991,1.292,1.292,0,0,1,.561.1Zm4.1,6.4a3.232,3.232,0,0,1-2.447-.988,3.666,3.666,0,0,1-.943-2.642V9.274a4.438,4.438,0,0,1,.42-1.965,3.28,3.28,0,0,1,1.176-1.354,2.956,2.956,0,0,1,1.637-.489,2.77,2.77,0,0,1,2.242.95,4.114,4.114,0,0,1,.8,2.721v.526H52.9a2.629,2.629,0,0,0,.639,1.767A2.009,2.009,0,0,0,55.1,12.1a2.2,2.2,0,0,0,1.135-.273,2.851,2.851,0,0,0,.813-.725l.772.6A3.106,3.106,0,0,1,55.029,13.137Zm-.157-6.631a1.687,1.687,0,0,0-1.285.557,2.708,2.708,0,0,0-.643,1.562h3.705v-.1a2.409,2.409,0,0,0-.52-1.494A1.588,1.588,0,0,0,54.872,6.506ZM63.943,13a2.657,2.657,0,0,1-.178-.779,2.822,2.822,0,0,1-2.105.916,2.611,2.611,0,0,1-1.794-.619,2,2,0,0,1-.7-1.569,2.091,2.091,0,0,1,.878-1.794,4.142,4.142,0,0,1,2.471-.639h1.23V7.935a1.42,1.42,0,0,0-.4-1.056,1.593,1.593,0,0,0-1.169-.393,1.844,1.844,0,0,0-1.135.342,1.007,1.007,0,0,0-.458.827H59.315a1.745,1.745,0,0,1,.393-1.07,2.683,2.683,0,0,1,1.066-.817,3.588,3.588,0,0,1,1.48-.3,2.924,2.924,0,0,1,2,.639,2.306,2.306,0,0,1,.752,1.76v3.4a4.162,4.162,0,0,0,.26,1.62V13Zm-2.1-.964a2.223,2.223,0,0,0,1.128-.308,1.861,1.861,0,0,0,.772-.8V9.411h-.991q-2.324,0-2.324,1.36a1.151,1.151,0,0,0,.4.93A1.524,1.524,0,0,0,61.845,12.036ZM68.366,13H67.1V2.5h1.265Zm3.4,0H70.5V5.6h1.265ZM70.4,3.642a.755.755,0,0,1,.188-.52.706.706,0,0,1,.557-.212.717.717,0,0,1,.561.212.747.747,0,0,1,.191.52.722.722,0,0,1-.191.513.73.73,0,0,1-.561.205.718.718,0,0,1-.557-.205A.73.73,0,0,1,70.4,3.642Zm4.58,8.326H79.3V13H73.432v-.93l4.081-5.421h-4.02V5.6H79.1v.9ZM85.292,13a2.657,2.657,0,0,1-.178-.779,2.822,2.822,0,0,1-2.105.916,2.611,2.611,0,0,1-1.794-.619,2,2,0,0,1-.7-1.569,2.091,2.091,0,0,1,.878-1.794,4.141,4.141,0,0,1,2.471-.639h1.23V7.935a1.42,1.42,0,0,0-.4-1.056,1.593,1.593,0,0,0-1.169-.393,1.844,1.844,0,0,0-1.135.342,1.007,1.007,0,0,0-.458.827H80.664a1.745,1.745,0,0,1,.393-1.07,2.683,2.683,0,0,1,1.066-.817,3.588,3.588,0,0,1,1.48-.3,2.924,2.924,0,0,1,2,.639,2.306,2.306,0,0,1,.752,1.76v3.4a4.162,4.162,0,0,0,.26,1.62V13Zm-2.1-.964a2.223,2.223,0,0,0,1.128-.308,1.861,1.861,0,0,0,.772-.8V9.411H84.1q-2.324,0-2.324,1.36a1.151,1.151,0,0,0,.4.93A1.524,1.524,0,0,0,83.193,12.036Zm8.114.068a1.822,1.822,0,0,0,1.183-.41,1.443,1.443,0,0,0,.561-1.025h1.2a2.293,2.293,0,0,1-.437,1.21,2.882,2.882,0,0,1-1.077.916,3.107,3.107,0,0,1-1.425.342,3.047,3.047,0,0,1-2.4-1.008,4.016,4.016,0,0,1-.892-2.758V9.158a4.453,4.453,0,0,1,.4-1.921,3.02,3.02,0,0,1,1.138-1.306A3.233,3.233,0,0,1,91.3,5.467a2.966,2.966,0,0,1,2.068.745,2.663,2.663,0,0,1,.878,1.935h-1.2a1.743,1.743,0,0,0-.543-1.179A1.691,1.691,0,0,0,91.3,6.506a1.77,1.77,0,0,0-1.494.694,3.259,3.259,0,0,0-.53,2.006v.239a3.194,3.194,0,0,0,.526,1.969A1.779,1.779,0,0,0,91.308,12.1Zm5.735.9H95.778V5.6h1.265ZM95.676,3.642a.755.755,0,0,1,.188-.52.706.706,0,0,1,.557-.212.717.717,0,0,1,.561.212.747.747,0,0,1,.191.52.722.722,0,0,1-.191.513.73.73,0,0,1-.561.205.718.718,0,0,1-.557-.205A.73.73,0,0,1,95.676,3.642Zm3.056,5.592a4.369,4.369,0,0,1,.427-1.955,3.187,3.187,0,0,1,1.189-1.34,3.238,3.238,0,0,1,1.74-.472,3.119,3.119,0,0,1,2.444,1.046,4.024,4.024,0,0,1,.933,2.782v.089a4.407,4.407,0,0,1-.414,1.938,3.14,3.14,0,0,1-1.183,1.336,3.275,3.275,0,0,1-1.767.479,3.111,3.111,0,0,1-2.437-1.046,4,4,0,0,1-.933-2.769Zm1.271.15a3.164,3.164,0,0,0,.571,1.976,1.934,1.934,0,0,0,3.059-.01,3.46,3.46,0,0,0,.567-2.116,3.159,3.159,0,0,0-.578-1.972,1.836,1.836,0,0,0-1.535-.755,1.816,1.816,0,0,0-1.511.745A3.435,3.435,0,0,0,100,9.384Zm2.659-6.87h1.531l-1.832,2.01-1.019,0Zm5.585,3.09.041.93A2.7,2.7,0,0,1,110.5,5.467q2.345,0,2.365,2.646V13H111.6V8.105a1.7,1.7,0,0,0-.366-1.183,1.466,1.466,0,0,0-1.118-.383,1.825,1.825,0,0,0-1.08.328,2.228,2.228,0,0,0-.725.861V13h-1.265V5.6Zm9.687,3.637A4.333,4.333,0,0,1,118.74,6.5a2.745,2.745,0,0,1,4.17-.147V2.5h1.265V13h-1.162l-.062-.793a2.575,2.575,0,0,1-2.112.93,2.526,2.526,0,0,1-2.1-1.053,4.382,4.382,0,0,1-.81-2.748Zm1.265.144a3.281,3.281,0,0,0,.52,1.969,1.68,1.68,0,0,0,1.436.711,1.845,1.845,0,0,0,1.757-1.08v-3.4a1.859,1.859,0,0,0-1.743-1.046,1.687,1.687,0,0,0-1.449.718A3.612,3.612,0,0,0,119.2,9.384Zm10.008,3.753a3.232,3.232,0,0,1-2.447-.988,3.666,3.666,0,0,1-.943-2.642V9.274a4.438,4.438,0,0,1,.42-1.965,3.28,3.28,0,0,1,1.176-1.354,2.956,2.956,0,0,1,1.637-.489,2.77,2.77,0,0,1,2.242.95,4.114,4.114,0,0,1,.8,2.721v.526H127.08a2.629,2.629,0,0,0,.639,1.767,2.009,2.009,0,0,0,1.555.673,2.2,2.2,0,0,0,1.135-.273,2.851,2.851,0,0,0,.813-.725l.772.6A3.106,3.106,0,0,1,129.206,13.137Zm-.157-6.631a1.687,1.687,0,0,0-1.285.557,2.708,2.708,0,0,0-.643,1.562h3.705v-.1a2.409,2.409,0,0,0-.52-1.494A1.588,1.588,0,0,0,129.049,6.506Zm12.2,5.742a2.477,2.477,0,0,1-2.023.889,2.337,2.337,0,0,1-1.815-.684,2.918,2.918,0,0,1-.639-2V5.6h1.976v4.784q0,1.157,1.053,1.157a1.426,1.426,0,0,0,1.381-.7V5.6h1.982V13h-1.859ZM146.474,5.6l.062.854a2.582,2.582,0,0,1,2.126-.991,2.146,2.146,0,0,1,1.75.69A3.221,3.221,0,0,1,151,8.222V13h-1.976V8.259a1.287,1.287,0,0,0-.273-.915,1.222,1.222,0,0,0-.909-.284,1.359,1.359,0,0,0-1.251.713V13h-1.976V5.6ZM156.782,13a2.194,2.194,0,0,1-.2-.663,2.39,2.39,0,0,1-1.866.8,2.626,2.626,0,0,1-1.8-.629,2.023,2.023,0,0,1-.714-1.586,2.09,2.09,0,0,1,.872-1.8,4.3,4.3,0,0,1,2.519-.636h.909V8.058a1.219,1.219,0,0,0-.263-.82,1.035,1.035,0,0,0-.831-.308,1.177,1.177,0,0,0-.783.239.813.813,0,0,0-.284.656h-1.976a1.984,1.984,0,0,1,.4-1.189,2.621,2.621,0,0,1,1.121-.858,4.086,4.086,0,0,1,1.627-.311,3.228,3.228,0,0,1,2.17.687,2.4,2.4,0,0,1,.8,1.931v3.206a3.536,3.536,0,0,0,.294,1.593V13Zm-1.634-1.374a1.7,1.7,0,0,0,.807-.195,1.28,1.28,0,0,0,.547-.523V9.637h-.738q-1.483,0-1.579,1.025l-.007.116a.791.791,0,0,0,.26.608A1.009,1.009,0,0,0,155.148,11.626ZM2.844,33H.861V22.5H2.844Zm3.712,0H4.573V25.6H6.556Zm-2.1-9.311a.973.973,0,0,1,.3-.731,1.117,1.117,0,0,1,.81-.287,1.12,1.12,0,0,1,.807.287,1.044,1.044,0,0,1,0,1.47,1.122,1.122,0,0,1-.8.287,1.122,1.122,0,0,1-.8-.287A.97.97,0,0,1,4.457,23.689ZM14.848,29.37a4.479,4.479,0,0,1-.759,2.772,2.513,2.513,0,0,1-2.119.995,2.309,2.309,0,0,1-1.921-.923L9.96,33H8.183V22.5h1.976v3.767a2.25,2.25,0,0,1,1.8-.8,2.534,2.534,0,0,1,2.123.995,4.485,4.485,0,0,1,.769,2.8Zm-1.976-.151a2.959,2.959,0,0,0-.355-1.642,1.2,1.2,0,0,0-1.06-.518,1.3,1.3,0,0,0-1.3.775v2.928a1.32,1.32,0,0,0,1.313.782,1.22,1.22,0,0,0,1.258-.946A4.9,4.9,0,0,0,12.872,29.22Zm7.349-1.763a5.367,5.367,0,0,0-.711-.055,1.447,1.447,0,0,0-1.47.759V33H16.064V25.6h1.866l.055.882a1.831,1.831,0,0,1,1.647-1.019,2.07,2.07,0,0,1,.615.089Zm4.225,5.681a3.631,3.631,0,0,1-2.649-1,3.548,3.548,0,0,1-1.022-2.659v-.191a4.468,4.468,0,0,1,.431-1.993,3.161,3.161,0,0,1,1.22-1.354,3.425,3.425,0,0,1,1.8-.475,3.07,3.07,0,0,1,2.389.957,3.889,3.889,0,0,1,.872,2.714v.807h-4.71a1.835,1.835,0,0,0,.578,1.162,1.746,1.746,0,0,0,1.22.438,2.132,2.132,0,0,0,1.784-.827L27.33,31.8a2.966,2.966,0,0,1-1.2.981A3.947,3.947,0,0,1,24.445,33.137ZM24.22,27.06a1.234,1.234,0,0,0-.954.4A2.062,2.062,0,0,0,22.8,28.6h2.748V28.44a1.471,1.471,0,0,0-.355-1.02A1.274,1.274,0,0,0,24.22,27.06Zm6.754-3.274V25.6h1.265v1.449H30.974v3.691a.881.881,0,0,0,.157.588.79.79,0,0,0,.6.178,3.151,3.151,0,0,0,.581-.048v1.5a4.067,4.067,0,0,1-1.2.178A1.886,1.886,0,0,1,29,31.038V27.053h-1.08V25.6H29V23.785ZM37.625,33a2.194,2.194,0,0,1-.2-.663,2.39,2.39,0,0,1-1.866.8,2.626,2.626,0,0,1-1.8-.629,2.023,2.023,0,0,1-.714-1.586,2.09,2.09,0,0,1,.872-1.8,4.3,4.3,0,0,1,2.519-.636h.909v-.424a1.219,1.219,0,0,0-.263-.82,1.035,1.035,0,0,0-.831-.308,1.177,1.177,0,0,0-.783.239.813.813,0,0,0-.284.656H33.209a1.984,1.984,0,0,1,.4-1.189,2.621,2.621,0,0,1,1.121-.858,4.086,4.086,0,0,1,1.627-.311,3.228,3.228,0,0,1,2.17.687,2.4,2.4,0,0,1,.8,1.931v3.206a3.536,3.536,0,0,0,.294,1.593V33Zm-1.634-1.374a1.7,1.7,0,0,0,.807-.195,1.28,1.28,0,0,0,.547-.523V29.637h-.738q-1.483,0-1.579,1.025l-.007.116a.791.791,0,0,0,.26.608A1.009,1.009,0,0,0,35.991,31.626Zm8.032-2.379a4.457,4.457,0,0,1,.776-2.755,2.517,2.517,0,0,1,2.123-1.025,2.265,2.265,0,0,1,1.784.807V22.5h1.982V33H48.9l-.1-.786a2.325,2.325,0,0,1-1.9.923,2.511,2.511,0,0,1-2.1-1.029A4.6,4.6,0,0,1,44.023,29.247ZM46,29.388a2.936,2.936,0,0,0,.362,1.6,1.179,1.179,0,0,0,1.053.556,1.321,1.321,0,0,0,1.292-.776V27.836a1.3,1.3,0,0,0-1.278-.776Q46,27.06,46,29.388Zm9.625,3.749a3.631,3.631,0,0,1-2.649-1,3.548,3.548,0,0,1-1.022-2.659v-.191a4.468,4.468,0,0,1,.431-1.993,3.161,3.161,0,0,1,1.22-1.354,3.425,3.425,0,0,1,1.8-.475,3.07,3.07,0,0,1,2.389.957,3.889,3.889,0,0,1,.872,2.714v.807h-4.71a1.835,1.835,0,0,0,.578,1.162,1.746,1.746,0,0,0,1.22.438,2.132,2.132,0,0,0,1.784-.827l.971,1.087a2.966,2.966,0,0,1-1.2.981A3.947,3.947,0,0,1,55.624,33.137ZM55.4,27.06a1.234,1.234,0,0,0-.954.4,2.062,2.062,0,0,0-.468,1.14h2.748V28.44a1.471,1.471,0,0,0-.355-1.02A1.274,1.274,0,0,0,55.4,27.06ZM66.35,31.544a1.3,1.3,0,0,0,.889-.3,1.054,1.054,0,0,0,.355-.8h1.853a2.534,2.534,0,0,1-.41,1.377,2.706,2.706,0,0,1-1.1.971,3.455,3.455,0,0,1-1.548.345,3.211,3.211,0,0,1-2.5-1.008,3.99,3.99,0,0,1-.916-2.786v-.13a3.944,3.944,0,0,1,.909-2.728,3.174,3.174,0,0,1,2.5-1.019,3.111,3.111,0,0,1,2.225.79,2.8,2.8,0,0,1,.851,2.1H67.594a1.358,1.358,0,0,0-.355-.938,1.321,1.321,0,0,0-1.945.142,2.916,2.916,0,0,0-.352,1.633V29.4a2.953,2.953,0,0,0,.349,1.643A1.2,1.2,0,0,0,66.35,31.544ZM74.86,33a2.194,2.194,0,0,1-.2-.663,2.39,2.39,0,0,1-1.866.8,2.626,2.626,0,0,1-1.8-.629,2.023,2.023,0,0,1-.714-1.586,2.09,2.09,0,0,1,.872-1.8,4.3,4.3,0,0,1,2.519-.636h.909v-.424a1.219,1.219,0,0,0-.263-.82,1.035,1.035,0,0,0-.831-.308,1.177,1.177,0,0,0-.783.239.813.813,0,0,0-.284.656H70.444a1.985,1.985,0,0,1,.4-1.189,2.621,2.621,0,0,1,1.121-.858,4.086,4.086,0,0,1,1.627-.311,3.228,3.228,0,0,1,2.17.687,2.4,2.4,0,0,1,.8,1.931v3.206a3.536,3.536,0,0,0,.294,1.593V33Zm-1.634-1.374a1.7,1.7,0,0,0,.807-.195,1.28,1.28,0,0,0,.547-.523V29.637h-.738q-1.483,0-1.579,1.025l-.007.116a.791.791,0,0,0,.26.608A1.009,1.009,0,0,0,73.227,31.626ZM80.165,33H78.183V22.5h1.982Zm3.712,0H81.895V25.6h1.982Zm-2.1-9.311a.973.973,0,0,1,.3-.731,1.281,1.281,0,0,1,1.617,0,1.044,1.044,0,0,1,0,1.47,1.267,1.267,0,0,1-1.606,0A.97.97,0,0,1,81.778,23.689ZM85.982,33V27.053h-1.1V25.6h1.1v-.342a2.774,2.774,0,0,1,.858-2.15,3.452,3.452,0,0,1,2.382-.755,7.9,7.9,0,0,1,2.242.4l-.287,1.634a8.748,8.748,0,0,0-1.039-.256,5.105,5.105,0,0,0-.793-.058q-1.381,0-1.381,1.224v.3h1.456v1.449H87.965V33Zm6.405,0H90.405V25.6h1.982Zm4.71-1.456a1.3,1.3,0,0,0,.889-.3,1.054,1.054,0,0,0,.355-.8h1.853a2.534,2.534,0,0,1-.41,1.377,2.706,2.706,0,0,1-1.1.971,3.455,3.455,0,0,1-1.548.345,3.211,3.211,0,0,1-2.5-1.008,3.99,3.99,0,0,1-.916-2.786v-.13a3.944,3.944,0,0,1,.909-2.728,3.174,3.174,0,0,1,2.5-1.019,3.111,3.111,0,0,1,2.225.79,2.8,2.8,0,0,1,.851,2.1H98.342a1.358,1.358,0,0,0-.355-.938,1.321,1.321,0,0,0-1.945.142,2.916,2.916,0,0,0-.352,1.633V29.4a2.953,2.953,0,0,0,.349,1.643A1.2,1.2,0,0,0,97.1,31.544ZM105.608,33a2.194,2.194,0,0,1-.2-.663,2.39,2.39,0,0,1-1.866.8,2.626,2.626,0,0,1-1.8-.629,2.023,2.023,0,0,1-.714-1.586,2.09,2.09,0,0,1,.872-1.8,4.3,4.3,0,0,1,2.519-.636h.909v-.424a1.219,1.219,0,0,0-.263-.82,1.035,1.035,0,0,0-.831-.308,1.177,1.177,0,0,0-.783.239.813.813,0,0,0-.284.656h-1.976a1.985,1.985,0,0,1,.4-1.189,2.621,2.621,0,0,1,1.121-.858,4.086,4.086,0,0,1,1.627-.311,3.228,3.228,0,0,1,2.17.687,2.4,2.4,0,0,1,.8,1.931v3.206a3.536,3.536,0,0,0,.294,1.593V33Zm-1.634-1.374a1.7,1.7,0,0,0,.807-.195,1.28,1.28,0,0,0,.547-.523V29.637h-.738q-1.483,0-1.579,1.025l-.007.116a.791.791,0,0,0,.26.608A1.009,1.009,0,0,0,103.975,31.626Zm7.93-.082a1.3,1.3,0,0,0,.889-.3,1.054,1.054,0,0,0,.355-.8H115a2.534,2.534,0,0,1-.41,1.377,2.706,2.706,0,0,1-1.1.971,3.455,3.455,0,0,1-1.548.345,3.211,3.211,0,0,1-2.5-1.008,3.99,3.99,0,0,1-.916-2.786v-.13a3.944,3.944,0,0,1,.909-2.728,3.174,3.174,0,0,1,2.5-1.019,3.111,3.111,0,0,1,2.225.79,2.8,2.8,0,0,1,.851,2.1h-1.853a1.358,1.358,0,0,0-.355-.938,1.321,1.321,0,0,0-1.945.142A2.916,2.916,0,0,0,110.5,29.2V29.4a2.953,2.953,0,0,0,.349,1.643A1.2,1.2,0,0,0,111.9,31.544ZM118.214,33h-1.982V25.6h1.982Zm-2.1-9.311a.973.973,0,0,1,.3-.731,1.281,1.281,0,0,1,1.617,0,1.044,1.044,0,0,1,0,1.47,1.267,1.267,0,0,1-1.606,0A.97.97,0,0,1,116.115,23.689Zm3.418,5.544a4.387,4.387,0,0,1,.424-1.962,3.1,3.1,0,0,1,1.22-1.333,3.56,3.56,0,0,1,1.849-.472,3.368,3.368,0,0,1,2.444.916,3.676,3.676,0,0,1,1.056,2.488l.014.506a3.866,3.866,0,0,1-.95,2.731,3.683,3.683,0,0,1-5.1,0,3.934,3.934,0,0,1-.954-2.789Zm1.976.14a2.765,2.765,0,0,0,.4,1.612,1.424,1.424,0,0,0,2.256.007,3.025,3.025,0,0,0,.4-1.763,2.737,2.737,0,0,0-.4-1.6,1.311,1.311,0,0,0-1.135-.568,1.29,1.29,0,0,0-1.121.565A3.076,3.076,0,0,0,121.509,29.374Zm8.066-3.77.062.854a2.582,2.582,0,0,1,2.126-.991,2.146,2.146,0,0,1,1.75.69,3.221,3.221,0,0,1,.588,2.064V33h-1.976V28.259a1.287,1.287,0,0,0-.273-.915,1.222,1.222,0,0,0-.909-.284,1.359,1.359,0,0,0-1.251.713V33h-1.976V25.6ZM139,33.137a3.631,3.631,0,0,1-2.649-1,3.548,3.548,0,0,1-1.022-2.659v-.191a4.468,4.468,0,0,1,.431-1.993,3.161,3.161,0,0,1,1.22-1.354,3.425,3.425,0,0,1,1.8-.475,3.07,3.07,0,0,1,2.389.957,3.889,3.889,0,0,1,.872,2.714v.807h-4.71a1.835,1.835,0,0,0,.578,1.162,1.746,1.746,0,0,0,1.22.438,2.132,2.132,0,0,0,1.784-.827l.971,1.087a2.966,2.966,0,0,1-1.2.981A3.947,3.947,0,0,1,139,33.137Zm-.226-6.077a1.235,1.235,0,0,0-.954.4,2.062,2.062,0,0,0-.468,1.14H140.1V28.44a1.471,1.471,0,0,0-.355-1.02A1.274,1.274,0,0,0,138.776,27.06Zm8.395,3.9a.637.637,0,0,0-.359-.571,4.077,4.077,0,0,0-1.152-.373q-2.639-.554-2.639-2.242a2.032,2.032,0,0,1,.817-1.644,3.3,3.3,0,0,1,2.136-.66,3.547,3.547,0,0,1,2.252.663,2.09,2.09,0,0,1,.844,1.723H147.1a.956.956,0,0,0-.273-.7,1.157,1.157,0,0,0-.854-.277,1.182,1.182,0,0,0-.772.226.712.712,0,0,0-.273.574.609.609,0,0,0,.311.53,3.2,3.2,0,0,0,1.049.349,8.571,8.571,0,0,1,1.244.332,2.044,2.044,0,0,1,1.565,1.989,1.929,1.929,0,0,1-.868,1.637,3.745,3.745,0,0,1-2.242.625,3.912,3.912,0,0,1-1.651-.332A2.77,2.77,0,0,1,143.2,31.9a2.113,2.113,0,0,1-.41-1.248h1.873a1.031,1.031,0,0,0,.39.807,1.546,1.546,0,0,0,.971.28,1.43,1.43,0,0,0,.858-.215A.67.67,0,0,0,147.171,30.956Zm3.35,4.026-.718-.492a3.3,3.3,0,0,0,.67-1.846V31.5h1.237v.991a3.114,3.114,0,0,1-.338,1.381A3.233,3.233,0,0,1,150.521,34.982Zm10.562-3.944a.931.931,0,0,0-.386-.8,3.718,3.718,0,0,0-1.347-.489,6.367,6.367,0,0,1-1.524-.492,2.169,2.169,0,0,1-.834-.684,1.635,1.635,0,0,1-.27-.943,1.919,1.919,0,0,1,.769-1.538,3,3,0,0,1,1.965-.629,3.091,3.091,0,0,1,2.041.649,2.063,2.063,0,0,1,.783,1.661h-1.271a1.142,1.142,0,0,0-.441-.9,1.652,1.652,0,0,0-1.111-.376,1.729,1.729,0,0,0-1.08.3.947.947,0,0,0-.39.786.767.767,0,0,0,.362.69,4.458,4.458,0,0,0,1.309.444,6.821,6.821,0,0,1,1.535.506,2.239,2.239,0,0,1,.872.708,1.74,1.74,0,0,1,.284,1.008,1.893,1.893,0,0,1-.793,1.589,3.326,3.326,0,0,1-2.058.6,3.725,3.725,0,0,1-1.572-.314,2.557,2.557,0,0,1-1.07-.878,2.117,2.117,0,0,1-.386-1.22h1.265a1.309,1.309,0,0,0,.509,1.008,1.976,1.976,0,0,0,1.254.373,2.039,2.039,0,0,0,1.152-.291A.893.893,0,0,0,161.082,31.038Zm5.981,2.1a3.232,3.232,0,0,1-2.447-.988,3.666,3.666,0,0,1-.943-2.642v-.232a4.438,4.438,0,0,1,.42-1.965,3.279,3.279,0,0,1,1.176-1.354,2.956,2.956,0,0,1,1.637-.489,2.77,2.77,0,0,1,2.242.95,4.114,4.114,0,0,1,.8,2.721v.526h-5.011a2.629,2.629,0,0,0,.639,1.767,2.009,2.009,0,0,0,1.555.673,2.2,2.2,0,0,0,1.135-.273,2.851,2.851,0,0,0,.813-.725l.772.6A3.106,3.106,0,0,1,167.063,33.137Zm-.157-6.631a1.687,1.687,0,0,0-1.285.557,2.708,2.708,0,0,0-.643,1.562h3.705v-.1a2.409,2.409,0,0,0-.52-1.494A1.588,1.588,0,0,0,166.906,26.506ZM.649,49.24A4.333,4.333,0,0,1,1.456,46.5a2.551,2.551,0,0,1,2.112-1.036,2.565,2.565,0,0,1,2.058.889V42.5H6.891V53H5.729l-.062-.793a2.575,2.575,0,0,1-2.112.93,2.526,2.526,0,0,1-2.1-1.053,4.382,4.382,0,0,1-.81-2.748Zm1.265.144a3.281,3.281,0,0,0,.52,1.969,1.68,1.68,0,0,0,1.436.711,1.845,1.845,0,0,0,1.757-1.08v-3.4A1.859,1.859,0,0,0,3.883,46.54a1.687,1.687,0,0,0-1.449.718A3.612,3.612,0,0,0,1.914,49.384Zm10.008,3.753a3.232,3.232,0,0,1-2.447-.988,3.666,3.666,0,0,1-.943-2.642v-.232a4.438,4.438,0,0,1,.42-1.965,3.28,3.28,0,0,1,1.176-1.354,2.956,2.956,0,0,1,1.637-.489,2.77,2.77,0,0,1,2.242.95,4.114,4.114,0,0,1,.8,2.721v.526H9.8a2.629,2.629,0,0,0,.639,1.767,2.009,2.009,0,0,0,1.555.673,2.2,2.2,0,0,0,1.135-.273,2.851,2.851,0,0,0,.813-.725l.772.6A3.106,3.106,0,0,1,11.922,53.137Zm-.157-6.631a1.687,1.687,0,0,0-1.285.557,2.708,2.708,0,0,0-.643,1.562h3.705v-.1a2.409,2.409,0,0,0-.52-1.494A1.588,1.588,0,0,0,11.765,46.506Zm10.767,2.878a4.4,4.4,0,0,1-.779,2.724,2.49,2.49,0,0,1-2.092,1.029,2.578,2.578,0,0,1-2.167-.991L17.432,53H16.27V42.5h1.265v3.917a2.564,2.564,0,0,1,2.112-.95,2.505,2.505,0,0,1,2.116,1.019,4.53,4.53,0,0,1,.769,2.789Zm-1.265-.144a3.417,3.417,0,0,0-.5-2,1.652,1.652,0,0,0-1.436-.7,1.857,1.857,0,0,0-1.8,1.162v3.2a1.909,1.909,0,0,0,1.812,1.162,1.643,1.643,0,0,0,1.415-.7A3.634,3.634,0,0,0,21.267,49.24Zm5.927,3.9a3.232,3.232,0,0,1-2.447-.988,3.666,3.666,0,0,1-.943-2.642v-.232a4.438,4.438,0,0,1,.42-1.965A3.28,3.28,0,0,1,25.4,45.956a2.956,2.956,0,0,1,1.637-.489,2.77,2.77,0,0,1,2.242.95,4.114,4.114,0,0,1,.8,2.721v.526H25.067a2.629,2.629,0,0,0,.639,1.767,2.009,2.009,0,0,0,1.555.673,2.2,2.2,0,0,0,1.135-.273,2.851,2.851,0,0,0,.813-.725l.772.6A3.106,3.106,0,0,1,27.193,53.137Zm-.157-6.631a1.687,1.687,0,0,0-1.285.557,2.708,2.708,0,0,0-.643,1.562h3.705v-.1a2.409,2.409,0,0,0-.52-1.494A1.588,1.588,0,0,0,27.036,46.506Zm5.7-.9.041.93a2.7,2.7,0,0,1,2.215-1.066q2.345,0,2.365,2.646V53H36.094V48.105a1.7,1.7,0,0,0-.366-1.183,1.466,1.466,0,0,0-1.118-.383,1.825,1.825,0,0,0-1.08.328,2.228,2.228,0,0,0-.725.861V53H31.541V45.6Zm11.71-1.791V45.6h1.381v.978H44.447v4.593a1.027,1.027,0,0,0,.185.667.777.777,0,0,0,.629.222,3.062,3.062,0,0,0,.6-.082V53a3.688,3.688,0,0,1-.971.136,1.575,1.575,0,0,1-1.278-.513,2.2,2.2,0,0,1-.431-1.456V46.581H41.836V45.6h1.347V43.813Zm5.927,9.324a3.232,3.232,0,0,1-2.447-.988,3.666,3.666,0,0,1-.943-2.642v-.232a4.438,4.438,0,0,1,.42-1.965,3.28,3.28,0,0,1,1.176-1.354,2.956,2.956,0,0,1,1.637-.489,2.77,2.77,0,0,1,2.242.95,4.114,4.114,0,0,1,.8,2.721v.526H48.248a2.629,2.629,0,0,0,.639,1.767,2.009,2.009,0,0,0,1.555.673,2.2,2.2,0,0,0,1.135-.273,2.851,2.851,0,0,0,.813-.725l.772.6A3.106,3.106,0,0,1,50.374,53.137Zm-.157-6.631a1.687,1.687,0,0,0-1.285.557,2.708,2.708,0,0,0-.643,1.562h3.705v-.1a2.409,2.409,0,0,0-.52-1.494A1.588,1.588,0,0,0,50.217,46.506Zm5.7-.9.041.93a2.7,2.7,0,0,1,2.215-1.066q2.345,0,2.365,2.646V53H59.274V48.105a1.7,1.7,0,0,0-.366-1.183,1.466,1.466,0,0,0-1.118-.383,1.825,1.825,0,0,0-1.08.328,2.228,2.228,0,0,0-.725.861V53H54.722V45.6Zm9.6,7.533a3.232,3.232,0,0,1-2.447-.988,3.666,3.666,0,0,1-.943-2.642v-.232a4.438,4.438,0,0,1,.42-1.965,3.28,3.28,0,0,1,1.176-1.354,2.956,2.956,0,0,1,1.637-.489,2.77,2.77,0,0,1,2.242.95,4.114,4.114,0,0,1,.8,2.721v.526H63.39a2.629,2.629,0,0,0,.639,1.767,2.009,2.009,0,0,0,1.555.673,2.2,2.2,0,0,0,1.135-.273,2.851,2.851,0,0,0,.813-.725l.772.6A3.106,3.106,0,0,1,65.516,53.137Zm-.157-6.631a1.687,1.687,0,0,0-1.285.557,2.708,2.708,0,0,0-.643,1.562h3.705v-.1a2.409,2.409,0,0,0-.52-1.494A1.588,1.588,0,0,0,65.358,46.506Zm8.08.232a3.79,3.79,0,0,0-.622-.048,1.667,1.667,0,0,0-1.688,1.06V53H69.863V45.6h1.23l.021.854a1.969,1.969,0,0,1,1.764-.991,1.292,1.292,0,0,1,.561.1Zm10.876,2.646a4.429,4.429,0,0,1-.772,2.721,2.476,2.476,0,0,1-2.092,1.032,2.713,2.713,0,0,1-2.119-.854v3.562H78.066V45.6h1.155l.062.82a2.605,2.605,0,0,1,2.146-.957,2.522,2.522,0,0,1,2.109,1,4.477,4.477,0,0,1,.776,2.8ZM83.05,49.24a3.268,3.268,0,0,0-.533-1.976,1.718,1.718,0,0,0-1.463-.725,1.859,1.859,0,0,0-1.723,1.019v3.534A1.863,1.863,0,0,0,81.067,52.1a1.71,1.71,0,0,0,1.446-.721A3.567,3.567,0,0,0,83.05,49.24Zm6.446-2.5a3.79,3.79,0,0,0-.622-.048,1.667,1.667,0,0,0-1.688,1.06V53H85.921V45.6h1.23l.021.854a1.969,1.969,0,0,1,1.764-.991,1.292,1.292,0,0,1,.561.1Zm4.1,6.4a3.232,3.232,0,0,1-2.447-.988,3.666,3.666,0,0,1-.943-2.642v-.232a4.438,4.438,0,0,1,.42-1.965A3.28,3.28,0,0,1,91.8,45.956a2.956,2.956,0,0,1,1.637-.489,2.77,2.77,0,0,1,2.242.95,4.114,4.114,0,0,1,.8,2.721v.526H91.472a2.629,2.629,0,0,0,.639,1.767,2.009,2.009,0,0,0,1.555.673,2.2,2.2,0,0,0,1.135-.273,2.851,2.851,0,0,0,.813-.725l.772.6A3.106,3.106,0,0,1,93.6,53.137Zm-.157-6.631a1.687,1.687,0,0,0-1.285.557,2.708,2.708,0,0,0-.643,1.562h3.705v-.1a2.409,2.409,0,0,0-.52-1.494A1.588,1.588,0,0,0,93.44,46.506Zm8.812,4.532a.931.931,0,0,0-.386-.8,3.718,3.718,0,0,0-1.347-.489,6.367,6.367,0,0,1-1.524-.492,2.169,2.169,0,0,1-.834-.684,1.635,1.635,0,0,1-.27-.943A1.919,1.919,0,0,1,98.66,46.1a3,3,0,0,1,1.965-.629,3.091,3.091,0,0,1,2.041.649,2.063,2.063,0,0,1,.783,1.661h-1.271a1.142,1.142,0,0,0-.441-.9,1.652,1.652,0,0,0-1.111-.376,1.729,1.729,0,0,0-1.08.3.947.947,0,0,0-.39.786.767.767,0,0,0,.362.69,4.458,4.458,0,0,0,1.309.444,6.821,6.821,0,0,1,1.535.506,2.239,2.239,0,0,1,.872.708,1.74,1.74,0,0,1,.284,1.008,1.893,1.893,0,0,1-.793,1.589,3.326,3.326,0,0,1-2.058.6,3.725,3.725,0,0,1-1.572-.314,2.557,2.557,0,0,1-1.07-.878,2.117,2.117,0,0,1-.386-1.22H98.9a1.309,1.309,0,0,0,.509,1.008,1.976,1.976,0,0,0,1.254.373,2.039,2.039,0,0,0,1.152-.291A.893.893,0,0,0,102.252,51.038Zm5.981,2.1a3.232,3.232,0,0,1-2.447-.988,3.666,3.666,0,0,1-.943-2.642v-.232a4.438,4.438,0,0,1,.42-1.965,3.28,3.28,0,0,1,1.176-1.354,2.956,2.956,0,0,1,1.637-.489,2.77,2.77,0,0,1,2.242.95,4.114,4.114,0,0,1,.8,2.721v.526h-5.011a2.629,2.629,0,0,0,.639,1.767,2.009,2.009,0,0,0,1.555.673,2.2,2.2,0,0,0,1.135-.273,2.851,2.851,0,0,0,.813-.725l.772.6A3.106,3.106,0,0,1,108.233,53.137Zm-.157-6.631a1.687,1.687,0,0,0-1.285.557,2.708,2.708,0,0,0-.643,1.562h3.705v-.1a2.409,2.409,0,0,0-.52-1.494A1.588,1.588,0,0,0,108.076,46.506Zm5.7-.9.041.93a2.7,2.7,0,0,1,2.215-1.066q2.345,0,2.365,2.646V53h-1.265V48.105a1.7,1.7,0,0,0-.366-1.183,1.466,1.466,0,0,0-1.118-.383,1.825,1.825,0,0,0-1.08.328,2.228,2.228,0,0,0-.725.861V53h-1.265V45.6Zm8.244-1.791V45.6H123.4v.978h-1.381v4.593a1.027,1.027,0,0,0,.185.667.777.777,0,0,0,.629.222,3.062,3.062,0,0,0,.6-.082V53a3.688,3.688,0,0,1-.971.136,1.575,1.575,0,0,1-1.278-.513,2.2,2.2,0,0,1-.431-1.456V46.581H119.41V45.6h1.347V43.813Zm5.927,9.324a3.232,3.232,0,0,1-2.447-.988,3.666,3.666,0,0,1-.943-2.642v-.232a4.438,4.438,0,0,1,.42-1.965,3.28,3.28,0,0,1,1.176-1.354,2.956,2.956,0,0,1,1.637-.489,2.77,2.77,0,0,1,2.242.95,4.114,4.114,0,0,1,.8,2.721v.526h-5.011a2.629,2.629,0,0,0,.639,1.767,2.009,2.009,0,0,0,1.555.673,2.2,2.2,0,0,0,1.135-.273,2.851,2.851,0,0,0,.813-.725l.772.6A3.106,3.106,0,0,1,127.948,53.137Zm-.157-6.631a1.687,1.687,0,0,0-1.285.557,2.708,2.708,0,0,0-.643,1.562h3.705v-.1a2.409,2.409,0,0,0-.52-1.494A1.588,1.588,0,0,0,127.791,46.506Zm8.812,4.532a.931.931,0,0,0-.386-.8,3.718,3.718,0,0,0-1.347-.489,6.367,6.367,0,0,1-1.524-.492,2.169,2.169,0,0,1-.834-.684,1.635,1.635,0,0,1-.27-.943,1.919,1.919,0,0,1,.769-1.538,3,3,0,0,1,1.965-.629,3.091,3.091,0,0,1,2.041.649,2.063,2.063,0,0,1,.783,1.661h-1.271a1.142,1.142,0,0,0-.441-.9,1.652,1.652,0,0,0-1.111-.376,1.729,1.729,0,0,0-1.08.3.947.947,0,0,0-.39.786.767.767,0,0,0,.362.69,4.458,4.458,0,0,0,1.309.444,6.821,6.821,0,0,1,1.535.506,2.239,2.239,0,0,1,.872.708,1.74,1.74,0,0,1,.284,1.008,1.893,1.893,0,0,1-.793,1.589,3.326,3.326,0,0,1-2.058.6,3.725,3.725,0,0,1-1.572-.314,2.557,2.557,0,0,1-1.07-.878,2.117,2.117,0,0,1-.386-1.22h1.265a1.309,1.309,0,0,0,.509,1.008,1.976,1.976,0,0,0,1.254.373,2.039,2.039,0,0,0,1.152-.291A.893.893,0,0,0,136.6,51.038ZM5.523,73a2.657,2.657,0,0,1-.178-.779,2.822,2.822,0,0,1-2.105.916,2.611,2.611,0,0,1-1.794-.619,2,2,0,0,1-.7-1.569,2.091,2.091,0,0,1,.878-1.794,4.141,4.141,0,0,1,2.471-.639h1.23v-.581a1.42,1.42,0,0,0-.4-1.056,1.593,1.593,0,0,0-1.169-.393,1.844,1.844,0,0,0-1.135.342,1.007,1.007,0,0,0-.458.827H.9a1.745,1.745,0,0,1,.393-1.07,2.683,2.683,0,0,1,1.066-.817,3.588,3.588,0,0,1,1.48-.3,2.924,2.924,0,0,1,2,.639,2.306,2.306,0,0,1,.752,1.76v3.4a4.162,4.162,0,0,0,.26,1.62V73Zm-2.1-.964a2.223,2.223,0,0,0,1.128-.308,1.861,1.861,0,0,0,.772-.8V69.411H4.334q-2.324,0-2.324,1.36a1.151,1.151,0,0,0,.4.93A1.524,1.524,0,0,0,3.425,72.036ZM9.946,73H8.682V62.5H9.946Zm1.723-3.76a4.347,4.347,0,0,1,.8-2.751,2.558,2.558,0,0,1,2.119-1.022,2.544,2.544,0,0,1,2.112.957l.062-.82h1.155v7.219a3.009,3.009,0,0,1-.851,2.263,3.141,3.141,0,0,1-2.287.827,3.8,3.8,0,0,1-1.565-.342,2.7,2.7,0,0,1-1.169-.937l.656-.759a2.473,2.473,0,0,0,1.989,1,1.938,1.938,0,0,0,1.439-.52,1.986,1.986,0,0,0,.516-1.463v-.636a2.6,2.6,0,0,1-2.071.875,2.527,2.527,0,0,1-2.1-1.046A4.571,4.571,0,0,1,11.669,69.24Zm1.271.144a3.316,3.316,0,0,0,.513,1.965,1.666,1.666,0,0,0,1.436.714,1.852,1.852,0,0,0,1.757-1.087V67.6A1.874,1.874,0,0,0,14.9,66.54a1.681,1.681,0,0,0-1.442.718A3.612,3.612,0,0,0,12.94,69.384Zm11.45,2.885a2.686,2.686,0,0,1-2.167.868,2.3,2.3,0,0,1-1.8-.687,2.974,2.974,0,0,1-.625-2.034V65.6h1.265v4.778q0,1.682,1.367,1.682a1.893,1.893,0,0,0,1.928-1.08V65.6h1.265V73h-1.2ZM28.738,65.6l.041.93a2.7,2.7,0,0,1,2.215-1.066q2.345,0,2.365,2.646V73H32.095V68.105a1.7,1.7,0,0,0-.366-1.183,1.466,1.466,0,0,0-1.118-.383,1.825,1.825,0,0,0-1.08.328,2.228,2.228,0,0,0-.725.861V73H27.542V65.6ZM39.833,73a2.657,2.657,0,0,1-.178-.779,2.822,2.822,0,0,1-2.105.916,2.611,2.611,0,0,1-1.794-.619,2,2,0,0,1-.7-1.569,2.091,2.091,0,0,1,.878-1.794,4.141,4.141,0,0,1,2.471-.639h1.23v-.581a1.42,1.42,0,0,0-.4-1.056,1.593,1.593,0,0,0-1.169-.393,1.844,1.844,0,0,0-1.135.342,1.007,1.007,0,0,0-.458.827H35.205a1.745,1.745,0,0,1,.393-1.07,2.683,2.683,0,0,1,1.066-.817,3.588,3.588,0,0,1,1.48-.3,2.924,2.924,0,0,1,2,.639,2.306,2.306,0,0,1,.752,1.76v3.4a4.162,4.162,0,0,0,.26,1.62V73Zm-2.1-.964a2.223,2.223,0,0,0,1.128-.308,1.861,1.861,0,0,0,.772-.8V69.411h-.991q-2.324,0-2.324,1.36a1.151,1.151,0,0,0,.4.93A1.524,1.524,0,0,0,37.734,72.036Zm9.454-1a.931.931,0,0,0-.386-.8,3.718,3.718,0,0,0-1.347-.489,6.367,6.367,0,0,1-1.524-.492,2.169,2.169,0,0,1-.834-.684,1.635,1.635,0,0,1-.27-.943A1.919,1.919,0,0,1,43.6,66.1a3,3,0,0,1,1.965-.629,3.091,3.091,0,0,1,2.041.649,2.063,2.063,0,0,1,.783,1.661H47.113a1.142,1.142,0,0,0-.441-.9,1.652,1.652,0,0,0-1.111-.376,1.729,1.729,0,0,0-1.08.3.947.947,0,0,0-.39.786.767.767,0,0,0,.362.69,4.458,4.458,0,0,0,1.309.444,6.821,6.821,0,0,1,1.535.506,2.239,2.239,0,0,1,.872.708,1.74,1.74,0,0,1,.284,1.008,1.893,1.893,0,0,1-.793,1.589,3.326,3.326,0,0,1-2.058.6,3.725,3.725,0,0,1-1.572-.314,2.557,2.557,0,0,1-1.07-.878,2.117,2.117,0,0,1-.386-1.22h1.265a1.309,1.309,0,0,0,.509,1.008A1.976,1.976,0,0,0,45.6,72.1a2.039,2.039,0,0,0,1.152-.291A.893.893,0,0,0,47.188,71.038ZM56.533,72.1a1.822,1.822,0,0,0,1.183-.41,1.443,1.443,0,0,0,.561-1.025h1.2a2.293,2.293,0,0,1-.437,1.21,2.881,2.881,0,0,1-1.077.916,3.107,3.107,0,0,1-1.425.342,3.047,3.047,0,0,1-2.4-1.008,4.016,4.016,0,0,1-.892-2.758v-.212a4.453,4.453,0,0,1,.4-1.921,3.02,3.02,0,0,1,1.138-1.306,3.233,3.233,0,0,1,1.753-.465,2.966,2.966,0,0,1,2.068.745,2.663,2.663,0,0,1,.878,1.935h-1.2a1.743,1.743,0,0,0-.543-1.179,1.691,1.691,0,0,0-1.207-.461,1.77,1.77,0,0,0-1.494.694,3.259,3.259,0,0,0-.53,2.006v.239a3.194,3.194,0,0,0,.526,1.969A1.779,1.779,0,0,0,56.533,72.1Zm8.928.9a2.657,2.657,0,0,1-.178-.779,2.822,2.822,0,0,1-2.105.916,2.611,2.611,0,0,1-1.794-.619,2,2,0,0,1-.7-1.569,2.091,2.091,0,0,1,.878-1.794,4.141,4.141,0,0,1,2.471-.639h1.23v-.581a1.42,1.42,0,0,0-.4-1.056,1.593,1.593,0,0,0-1.169-.393,1.844,1.844,0,0,0-1.135.342,1.007,1.007,0,0,0-.458.827H60.833a1.745,1.745,0,0,1,.393-1.07,2.683,2.683,0,0,1,1.066-.817,3.588,3.588,0,0,1,1.48-.3,2.924,2.924,0,0,1,2,.639,2.306,2.306,0,0,1,.752,1.76v3.4a4.162,4.162,0,0,0,.26,1.62V73Zm-2.1-.964a2.223,2.223,0,0,0,1.128-.308,1.861,1.861,0,0,0,.772-.8V69.411h-.991q-2.324,0-2.324,1.36a1.151,1.151,0,0,0,.4.93A1.524,1.524,0,0,0,63.362,72.036Zm8.723-5.3a3.79,3.79,0,0,0-.622-.048,1.667,1.667,0,0,0-1.688,1.06V73H68.51V65.6h1.23l.021.854a1.969,1.969,0,0,1,1.764-.991,1.292,1.292,0,0,1,.561.1ZM77.54,73a2.657,2.657,0,0,1-.178-.779,2.822,2.822,0,0,1-2.105.916,2.611,2.611,0,0,1-1.794-.619,2,2,0,0,1-.7-1.569,2.091,2.091,0,0,1,.878-1.794,4.141,4.141,0,0,1,2.471-.639h1.23v-.581a1.42,1.42,0,0,0-.4-1.056,1.593,1.593,0,0,0-1.169-.393,1.844,1.844,0,0,0-1.135.342,1.007,1.007,0,0,0-.458.827H72.912a1.745,1.745,0,0,1,.393-1.07,2.683,2.683,0,0,1,1.066-.817,3.588,3.588,0,0,1,1.48-.3,2.924,2.924,0,0,1,2,.639,2.306,2.306,0,0,1,.752,1.76v3.4a4.162,4.162,0,0,0,.26,1.62V73Zm-2.1-.964a2.223,2.223,0,0,0,1.128-.308,1.861,1.861,0,0,0,.772-.8V69.411h-.991q-2.324,0-2.324,1.36a1.151,1.151,0,0,0,.4.93A1.524,1.524,0,0,0,75.441,72.036Zm8.114.068a1.822,1.822,0,0,0,1.183-.41,1.443,1.443,0,0,0,.561-1.025h1.2a2.293,2.293,0,0,1-.437,1.21,2.882,2.882,0,0,1-1.077.916,3.107,3.107,0,0,1-1.425.342,3.047,3.047,0,0,1-2.4-1.008,4.016,4.016,0,0,1-.892-2.758v-.212a4.453,4.453,0,0,1,.4-1.921A3.02,3.02,0,0,1,81.8,65.932a3.233,3.233,0,0,1,1.753-.465,2.966,2.966,0,0,1,2.068.745,2.663,2.663,0,0,1,.878,1.935H85.3a1.743,1.743,0,0,0-.543-1.179,1.691,1.691,0,0,0-1.207-.461,1.77,1.77,0,0,0-1.494.694,3.259,3.259,0,0,0-.53,2.006v.239a3.194,3.194,0,0,0,.526,1.969A1.779,1.779,0,0,0,83.556,72.1Zm6.077-8.292V65.6h1.381v.978H89.633v4.593a1.027,1.027,0,0,0,.185.667.777.777,0,0,0,.629.222,3.062,3.062,0,0,0,.6-.082V73a3.688,3.688,0,0,1-.971.136,1.575,1.575,0,0,1-1.278-.513,2.2,2.2,0,0,1-.431-1.456V66.581H87.021V65.6h1.347V63.813Zm5.927,9.324a3.232,3.232,0,0,1-2.447-.988,3.666,3.666,0,0,1-.943-2.642v-.232a4.438,4.438,0,0,1,.42-1.965,3.28,3.28,0,0,1,1.176-1.354,2.956,2.956,0,0,1,1.637-.489,2.77,2.77,0,0,1,2.242.95,4.114,4.114,0,0,1,.8,2.721v.526H93.434a2.629,2.629,0,0,0,.639,1.767,2.009,2.009,0,0,0,1.555.673,2.2,2.2,0,0,0,1.135-.273,2.851,2.851,0,0,0,.813-.725l.772.6A3.106,3.106,0,0,1,95.56,73.137ZM95.4,66.506a1.687,1.687,0,0,0-1.285.557,2.708,2.708,0,0,0-.643,1.562H97.18v-.1a2.409,2.409,0,0,0-.52-1.494A1.588,1.588,0,0,0,95.4,66.506Zm8.08.232a3.79,3.79,0,0,0-.622-.048,1.667,1.667,0,0,0-1.688,1.06V73H99.907V65.6h1.23l.021.854a1.969,1.969,0,0,1,1.764-.991,1.292,1.292,0,0,1,.561.1ZM106.019,73h-1.271V65.6h1.271Zm.014-10.479h1.531l-1.832,2.01-1.019,0Zm6.378,8.518a.931.931,0,0,0-.386-.8,3.718,3.718,0,0,0-1.347-.489,6.367,6.367,0,0,1-1.524-.492,2.169,2.169,0,0,1-.834-.684,1.635,1.635,0,0,1-.27-.943,1.919,1.919,0,0,1,.769-1.538,3,3,0,0,1,1.965-.629,3.091,3.091,0,0,1,2.041.649,2.063,2.063,0,0,1,.783,1.661h-1.271a1.142,1.142,0,0,0-.441-.9,1.652,1.652,0,0,0-1.111-.376,1.729,1.729,0,0,0-1.08.3.947.947,0,0,0-.39.786.767.767,0,0,0,.362.69,4.458,4.458,0,0,0,1.309.444,6.821,6.821,0,0,1,1.535.506,2.239,2.239,0,0,1,.872.708,1.74,1.74,0,0,1,.284,1.008,1.893,1.893,0,0,1-.793,1.589,3.326,3.326,0,0,1-2.058.6,3.725,3.725,0,0,1-1.572-.314,2.557,2.557,0,0,1-1.07-.878,2.117,2.117,0,0,1-.386-1.22h1.265a1.309,1.309,0,0,0,.509,1.008,1.976,1.976,0,0,0,1.254.373,2.039,2.039,0,0,0,1.152-.291A.893.893,0,0,0,112.41,71.038Zm4.628-7.226V65.6h1.381v.978h-1.381v4.593a1.027,1.027,0,0,0,.185.667.777.777,0,0,0,.629.222,3.062,3.062,0,0,0,.6-.082V73a3.688,3.688,0,0,1-.971.136,1.575,1.575,0,0,1-1.278-.513,2.2,2.2,0,0,1-.431-1.456V66.581h-1.347V65.6h1.347V63.813ZM121.27,73H120V65.6h1.265ZM119.9,63.642a.755.755,0,0,1,.188-.52.706.706,0,0,1,.557-.212.717.717,0,0,1,.561.212.747.747,0,0,1,.191.52.722.722,0,0,1-.191.513.73.73,0,0,1-.561.205.718.718,0,0,1-.557-.205A.73.73,0,0,1,119.9,63.642ZM126.26,72.1a1.822,1.822,0,0,0,1.183-.41A1.443,1.443,0,0,0,128,70.669h1.2a2.293,2.293,0,0,1-.437,1.21,2.881,2.881,0,0,1-1.077.916,3.107,3.107,0,0,1-1.425.342,3.047,3.047,0,0,1-2.4-1.008,4.016,4.016,0,0,1-.892-2.758v-.212a4.453,4.453,0,0,1,.4-1.921,3.02,3.02,0,0,1,1.138-1.306,3.233,3.233,0,0,1,1.753-.465,2.966,2.966,0,0,1,2.068.745,2.663,2.663,0,0,1,.878,1.935H128a1.743,1.743,0,0,0-.543-1.179,1.691,1.691,0,0,0-1.207-.461,1.77,1.77,0,0,0-1.494.694,3.259,3.259,0,0,0-.53,2.006v.239a3.194,3.194,0,0,0,.526,1.969A1.779,1.779,0,0,0,126.26,72.1Zm8.928.9a2.657,2.657,0,0,1-.178-.779,2.822,2.822,0,0,1-2.105.916,2.611,2.611,0,0,1-1.794-.619,2,2,0,0,1-.7-1.569,2.091,2.091,0,0,1,.878-1.794,4.142,4.142,0,0,1,2.471-.639h1.23v-.581a1.42,1.42,0,0,0-.4-1.056,1.593,1.593,0,0,0-1.169-.393,1.844,1.844,0,0,0-1.135.342,1.007,1.007,0,0,0-.458.827H130.56a1.745,1.745,0,0,1,.393-1.07,2.683,2.683,0,0,1,1.066-.817,3.588,3.588,0,0,1,1.48-.3,2.924,2.924,0,0,1,2,.639,2.306,2.306,0,0,1,.752,1.76v3.4a4.162,4.162,0,0,0,.26,1.62V73Zm-2.1-.964a2.223,2.223,0,0,0,1.128-.308,1.861,1.861,0,0,0,.772-.8V69.411H134q-2.324,0-2.324,1.36a1.151,1.151,0,0,0,.4.93A1.524,1.524,0,0,0,133.089,72.036Zm9.454-1a.931.931,0,0,0-.386-.8,3.718,3.718,0,0,0-1.347-.489,6.367,6.367,0,0,1-1.524-.492,2.169,2.169,0,0,1-.834-.684,1.635,1.635,0,0,1-.27-.943,1.919,1.919,0,0,1,.769-1.538,3,3,0,0,1,1.965-.629,3.091,3.091,0,0,1,2.041.649,2.063,2.063,0,0,1,.783,1.661h-1.271a1.142,1.142,0,0,0-.441-.9,1.652,1.652,0,0,0-1.111-.376,1.729,1.729,0,0,0-1.08.3.947.947,0,0,0-.39.786.767.767,0,0,0,.362.69,4.458,4.458,0,0,0,1.309.444,6.821,6.821,0,0,1,1.535.506,2.239,2.239,0,0,1,.872.708,1.74,1.74,0,0,1,.284,1.008,1.893,1.893,0,0,1-.793,1.589,3.326,3.326,0,0,1-2.058.6,3.725,3.725,0,0,1-1.572-.314,2.557,2.557,0,0,1-1.07-.878,2.117,2.117,0,0,1-.386-1.22h1.265a1.309,1.309,0,0,0,.509,1.008,1.976,1.976,0,0,0,1.254.373,2.039,2.039,0,0,0,1.152-.291A.893.893,0,0,0,142.543,71.038Zm9.345,1.066a1.822,1.822,0,0,0,1.183-.41,1.443,1.443,0,0,0,.561-1.025h1.2a2.293,2.293,0,0,1-.437,1.21,2.881,2.881,0,0,1-1.077.916,3.107,3.107,0,0,1-1.425.342,3.047,3.047,0,0,1-2.4-1.008,4.016,4.016,0,0,1-.892-2.758v-.212a4.453,4.453,0,0,1,.4-1.921,3.02,3.02,0,0,1,1.138-1.306,3.233,3.233,0,0,1,1.753-.465,2.966,2.966,0,0,1,2.068.745,2.663,2.663,0,0,1,.878,1.935h-1.2a1.743,1.743,0,0,0-.543-1.179,1.691,1.691,0,0,0-1.207-.461,1.77,1.77,0,0,0-1.494.694,3.259,3.259,0,0,0-.53,2.006v.239a3.194,3.194,0,0,0,.526,1.969A1.779,1.779,0,0,0,151.888,72.1Zm4.026-2.871a4.369,4.369,0,0,1,.427-1.955,3.187,3.187,0,0,1,1.189-1.34,3.238,3.238,0,0,1,1.74-.472,3.119,3.119,0,0,1,2.444,1.046,4.024,4.024,0,0,1,.933,2.782v.089a4.407,4.407,0,0,1-.414,1.938,3.14,3.14,0,0,1-1.183,1.336,3.275,3.275,0,0,1-1.767.479,3.111,3.111,0,0,1-2.437-1.046,4,4,0,0,1-.933-2.769Zm1.271.15a3.164,3.164,0,0,0,.571,1.976,1.934,1.934,0,0,0,3.059-.01,3.46,3.46,0,0,0,.567-2.116,3.159,3.159,0,0,0-.578-1.972,1.836,1.836,0,0,0-1.535-.755,1.816,1.816,0,0,0-1.511.745A3.434,3.434,0,0,0,157.186,69.384Zm8.237-3.78.034.82a2.732,2.732,0,0,1,2.194-.957,2.115,2.115,0,0,1,2.112,1.189,2.8,2.8,0,0,1,.96-.861,2.837,2.837,0,0,1,1.4-.328q2.434,0,2.475,2.577V73h-1.265V68.119a1.7,1.7,0,0,0-.362-1.186,1.6,1.6,0,0,0-1.217-.393,1.677,1.677,0,0,0-1.169.42,1.706,1.706,0,0,0-.54,1.131V73h-1.271V68.153a1.411,1.411,0,0,0-1.579-1.613,1.692,1.692,0,0,0-1.7,1.06V73h-1.265V65.6Zm10.746,3.63a4.369,4.369,0,0,1,.427-1.955,3.187,3.187,0,0,1,1.189-1.34,3.238,3.238,0,0,1,1.74-.472,3.119,3.119,0,0,1,2.444,1.046,4.024,4.024,0,0,1,.933,2.782v.089a4.407,4.407,0,0,1-.414,1.938,3.14,3.14,0,0,1-1.183,1.336,3.275,3.275,0,0,1-1.767.479,3.111,3.111,0,0,1-2.437-1.046,4,4,0,0,1-.933-2.769Zm1.271.15a3.164,3.164,0,0,0,.571,1.976,1.934,1.934,0,0,0,3.059-.01,3.46,3.46,0,0,0,.567-2.116,3.159,3.159,0,0,0-.578-1.972,1.836,1.836,0,0,0-1.535-.755,1.816,1.816,0,0,0-1.511.745A3.434,3.434,0,0,0,177.44,69.384Zm7.007,2.953a.792.792,0,0,1,.195-.547.742.742,0,0,1,.584-.219.765.765,0,0,1,.591.219.776.776,0,0,1,.2.547.734.734,0,0,1-.2.526.778.778,0,0,1-.591.212.7.7,0,0,1-.779-.738Zm.007-6.036a.792.792,0,0,1,.195-.547.742.742,0,0,1,.584-.219.765.765,0,0,1,.591.219.776.776,0,0,1,.2.547.734.734,0,0,1-.2.526.778.778,0,0,1-.591.212.7.7,0,0,1-.779-.738Z" transform="translate(575 2431)" fill="#12263f"/>
    <g id="Grupo_145029" data-name="Grupo 145029" transform="translate(-13 -7.549)">
      <g transform="matrix(1, 0, 0, 1, 501.07, 2197.55)" filter="url(#Trazado_149944)">
        <path id="Trazado_149944-2" data-name="Trazado 149944" d="M221.34,30.228a30.23,30.23,0,1,0-30.23,30.231,30.229,30.229,0,0,0,30.23-30.231" transform="translate(227.55 119.95)" fill="#ffde96" stroke="#fff" stroke-width="4"/>
      </g>
    </g>
    <g id="Grupo_145028" data-name="Grupo 145028" transform="translate(-13 -7.549)">
      <g transform="matrix(1, 0, 0, 1, 501.07, 2197.55)" filter="url(#Trazado_150242)">
        <path id="Trazado_150242-2" data-name="Trazado 150242" d="M221.34,30.228a30.23,30.23,0,1,0-30.23,30.231,30.229,30.229,0,0,0,30.23-30.231" transform="translate(281.55 180.95)" fill="#fcb315" stroke="#fff" stroke-width="4"/>
      </g>
    </g>
    <g id="Grupo_145027" data-name="Grupo 145027" transform="translate(-13 -7.549)">
      <g transform="matrix(1, 0, 0, 1, 501.07, 2197.55)" filter="url(#Trazado_150243)">
        <path id="Trazado_150243-2" data-name="Trazado 150243" d="M221.34,30.228a30.23,30.23,0,1,0-30.23,30.231,30.229,30.229,0,0,0,30.23-30.231" transform="translate(227.55 237.12)" fill="#a4a3ff" stroke="#fff" stroke-width="4"/>
      </g>
    </g>
    <g id="Grupo_145026" data-name="Grupo 145026" transform="translate(-13 -7.549)">
      <g transform="matrix(1, 0, 0, 1, 501.07, 2197.55)" filter="url(#Trazado_150244)">
        <path id="Trazado_150244-2" data-name="Trazado 150244" d="M221.34,30.228a30.23,30.23,0,1,0-30.23,30.231,30.229,30.229,0,0,0,30.23-30.231" transform="translate(281.21 290.22)" fill="#7f79fb" stroke="#fff" stroke-width="4"/>
      </g>
    </g>
    <g id="Grupo_145025" data-name="Grupo 145025" transform="translate(-13 -7.549)">
      <g transform="matrix(1, 0, 0, 1, 501.07, 2197.55)" filter="url(#Trazado_150245)">
        <path id="Trazado_150245-2" data-name="Trazado 150245" d="M221.34,30.228a30.23,30.23,0,1,0-30.23,30.231,30.229,30.229,0,0,0,30.23-30.231" transform="translate(227.55 350.68)" fill="#acfcff" stroke="#fff" stroke-width="4"/>
      </g>
    </g>
  </g>
</svg>
