<svg id="Grupo_144983" data-name="Grupo 144983" xmlns="http://www.w3.org/2000/svg" xmlns:xlink="http://www.w3.org/1999/xlink" width="610" height="492.101" viewBox="0 0 610 492.101">
  <defs>
    <clipPath id="clip-path">
      <rect id="Rectángulo_39160" data-name="Rectángulo 39160" width="610" height="492.101" fill="none"/>
    </clipPath>
  </defs>
  <g id="Grupo_144982" data-name="Grupo 144982" clip-path="url(#clip-path)">
    <path id="Trazado_150000" data-name="Trazado 150000" d="M61.917,467.554c-3.841-29.125,13.914-57.6,37.332-75.335s51.954-27.011,79.527-37.149,55.612-22.016,75.773-43.382c25.276-26.785,34.638-64.646,40.115-101.063s8.255-74.057,23.82-107.435C339.863,57.349,395.049,45.7,440.949,52.245a139.872,139.872,0,0,1,109.1,83.18c14.362,33.151,14.381,69.388,6.477,104.162-7.818,34.4-32.255,64.215-22.2,100.917,4.994,18.225,15.86,33.832,21.952,51.61,8.213,23.969.726,52.526-18.188,69.384Z" transform="translate(20.888 17.203)" fill="#d4f6ff"/>
    <path id="Trazado_150001" data-name="Trazado 150001" d="M229.333,156.5a141.65,141.65,0,0,1,3.648,22.119c.942,11.155.188,23.426-7.157,31.875,5.205,6.374,12.842,11.421,20.918,13a36,36,0,0,0,23.919-3.676c1.971-1.074,3.836-2.331,5.7-3.586l6.853-4.62c-11.234-17.067-21.083-36.094-19.476-56.463-5.167-.665-12.526-2.414-17.692-3.079a29.89,29.89,0,0,0-6.753-.354c-3.568.354-6.393,5.185-9.957,4.779" transform="translate(76.833 51.593)" fill="#f1725f"/>
    <path id="Trazado_150002" data-name="Trazado 150002" d="M358.709,388.182V353.32a59.329,59.329,0,0,0-59.155-59.154H258.548a59.329,59.329,0,0,0-59.155,59.154v34.862Z" transform="translate(67.84 100.086)" fill="#fad3af"/>
    <path id="Trazado_150003" data-name="Trazado 150003" d="M173.874,338.145c3.255,15.452,6.918,30.824,10.5,46.207,2.079,8.911,4.111,17.822,6.034,26.762q1.158,5.394,2.241,10.805H385.412c1.281-15.7,2.595-31.412,3.572-47.139,1.884-30.445,2.536-61.182-.768-91.539-.914-8.513-2.147-17-3.751-25.431a148.55,148.55,0,0,0-19.746-50.341c-2.111-1.383-4.265-2.7-6.477-3.931a84.273,84.273,0,0,0-17.407-7.294c-6.4-.318-12.839-.277-19.243-.22-2.789.02-5.578.048-8.347.048h-.272c-.661,0-1.321,0-1.982-.009-2.032-.009-4.072-.039-6.1-.078-7.744-.137-15.489-.428-23.234-.661-.8-.02-1.6-.05-2.4-.068-8.571-.233-17.142-.369-25.712-.107-1.254.039-2.508.078-3.771.137-.456.019-.922.039-1.379.068-.515.019-1.031.048-1.545.078-1.973.1-3.955.222-5.937.389-.6.048-1.216.1-1.817.155-1.06.087-2.128.184-3.187.311a3.676,3.676,0,0,0-.466.048c-.564.058-1.128.126-1.691.194a1.476,1.476,0,0,0-.3.029c-.5.058-.99.126-1.486.194-4.218.544-8.415,1.273-12.555,2.225a85.8,85.8,0,0,0-22.292,8.28A121.738,121.738,0,0,0,172.971,225.1a162.931,162.931,0,0,0-12.08,12.652c-.02.283-.039.574-.059.855-.058.768-.117,1.536-.155,2.3-1.622,29.745,5.578,59.15,11.38,88.362.583,2.963,1.2,5.918,1.817,8.872" transform="translate(54.589 66.348)" fill="#fadfc4"/>
    <path id="Trazado_150004" data-name="Trazado 150004" d="M234.636,216.113c7.626,6.535,16.647,13.213,25.629,16.664a45.263,45.263,0,0,0,6.165,1.9,20.264,20.264,0,0,0,5.188.7,22,22,0,0,0,9.656-1.72c8.419-3.9,13.731-12.2,17.7-20.892a113.683,113.683,0,0,0,5.843-16.142c-2.883.025-5.758.052-8.619.051-19.818-.013-35.92-3.983-55.742-3.379-7.064.216-23.469.419-30.7,1.364,6.185,6.566,18.038,15.587,24.883,21.452" transform="translate(71.365 65.745)" fill="#fadfc4"/>
    <path id="Trazado_150005" data-name="Trazado 150005" d="M293.817,197.052c.009-.016.021-.028.031-.044a24.166,24.166,0,0,0-.008-12.223c-4.214-14.974-23.492-5.914-28.39,3.687a23.147,23.147,0,0,0-1.815,16.992c-6.026-8.49-14.634-18.966-24.513-22.28-8.883-2.981-21.71-1.1-23.284,8.135-1.48,8.7,7.934,18.438,14.5,21.751l52.24,6.26c4.029-6,8.784-13.33,10.918-20.951a2.335,2.335,0,0,1,.32-1.327" transform="translate(73.383 60.166)" fill="#fadfc4"/>
    <path id="Trazado_150006" data-name="Trazado 150006" d="M299.369,422.538h53.66v-139a267.439,267.439,0,0,0,22.159-26.372c-6.315-8.142-12.811-16.143-19.791-23.729-10.385-11.286-19.407-19.525-37.313-31.191-13.087-8.527-32.168-12.271-45.211-5.75-.4.2,1.8,60.671,4.939,97.411,3.686,43.133,14.1,85.873,21.558,128.629" transform="translate(92.825 65.729)" fill="#495a7e"/>
    <path id="Trazado_150007" data-name="Trazado 150007" d="M246.343,338.042c-.35-47.092,1.778-102.344-11.038-144.276a280.259,280.259,0,0,0-29.982,12.53,83.1,83.1,0,0,0-13,8.521c-4,2.489-10.033,6.345-13.625,9.154-18.8,14.706-30.527,33.06-38.634,53.2h17.814V422.342h21.249q1.14-3.337,2.3-6.82c0,.11,0,.22,0,.33q.02,3.245.031,6.491h59.6a607.35,607.35,0,0,0,5.279-84.3" transform="translate(47.655 65.926)" fill="#495a7e"/>
    <path id="Trazado_150008" data-name="Trazado 150008" d="M425.449,329.755q-14.72-21.507-29.442-43.014-2.344-2.847-4.636-5.736c-4.624-5.853-9.11-11.814-13.6-17.766-9.473-12.541-19-25.081-29.651-36.658-3.914-4.253-7.992-8.394-12.274-12.306a15.76,15.76,0,0,0-10.641-.013c-8.1,3.022-11.576,12.558-12.7,21.133-5.413,41.2,24.288,82.131,49.854,114.892-19.829,11.933-53.757,38.481-68.116,56.629L434.9,403.382c10.159-9.028,12.484-24.467,9.266-37.671s-11.042-24.741-18.719-35.956" transform="translate(100.109 72.586)" fill="#495a7e"/>
    <path id="Trazado_150009" data-name="Trazado 150009" d="M261.481,145.876H234.148c3.438,4.5,7.692,9.012,13.327,9.571s13.629-3.92,14.005-9.571" transform="translate(79.665 49.632)" fill="#fff"/>
    <path id="Trazado_150010" data-name="Trazado 150010" d="M172.621,191.429c.718,9.453,2.264,29.808,2.265,29.816-.044-.452,4.353-2.3,4.75-2.481,5.712-2.638,13.3-6.995,18.988-2.144,5.168,4.408-.231,6.211-.232,6.211-4.014.34-7.819,3.436-11.037,5.64-5.594,3.836-9.069,8.484-13.022,13.839-3.644,4.94-8,9.2-13.9,11.308a28.8,28.8,0,0,1-17.826.621c-4.927-1.41-8.838-4.759-12.325-8.354-5.688-5.866-5.775-20.16-6.532-27.724-.728-7.272.474-18.17,6.267-23.351Z" transform="translate(42.041 65.131)" fill="#f3725f"/>
    <path id="Trazado_150011" data-name="Trazado 150011" d="M150.54,180.672l3.369,43.578c.359,4.643,2.8,8.269,5.415,8.059l2.254-.181c2.619-.21,4.468-4.182,4.109-8.824l-3.369-43.578c-.359-4.643-2.8-8.269-5.415-8.059l-2.254.181c-2.619.21-4.468,4.182-4.109,8.824" transform="translate(51.204 58.404)" fill="#f3725f"/>
    <path id="Trazado_150012" data-name="Trazado 150012" d="M142.31,194.844l2.3,29.945a5.652,5.652,0,0,0,6.078,5.179l.394-.031a5.687,5.687,0,0,0,5.214-6.075L154,193.916a5.653,5.653,0,0,0-6.078-5.179l-.394.032a5.687,5.687,0,0,0-5.215,6.074" transform="translate(48.413 64.209)" fill="#f3725f"/>
    <path id="Trazado_150013" data-name="Trazado 150013" d="M134.209,196.1l2.3,29.945a5.651,5.651,0,0,0,6.077,5.179l.4-.031a5.687,5.687,0,0,0,5.214-6.075l-2.3-29.945a5.653,5.653,0,0,0-6.078-5.179l-.394.032a5.688,5.688,0,0,0-5.215,6.074" transform="translate(45.657 64.636)" fill="#f3725f"/>
    <path id="Trazado_150014" data-name="Trazado 150014" d="M127,198.438l1.784,23.253a5.089,5.089,0,0,0,5.472,4.661l1.521-.121a5.118,5.118,0,0,0,4.693-5.468l-1.784-23.252a5.09,5.09,0,0,0-5.471-4.663l-1.523.122A5.118,5.118,0,0,0,127,198.438" transform="translate(43.206 65.609)" fill="#f3725f"/>
    <path id="Trazado_150015" data-name="Trazado 150015" d="M162.479,234.5l5.779,36.291L133.4,276.8l-3.749-53.916Z" transform="translate(44.113 75.834)" fill="#f3725f"/>
    <rect id="Rectángulo_39158" data-name="Rectángulo 39158" width="71.393" height="147.545" transform="translate(156.749 338.342)" fill="#3d4f6b"/>
    <path id="Trazado_150016" data-name="Trazado 150016" d="M307.6,309.917a16.159,16.159,0,1,1-16.158-16.159A16.159,16.159,0,0,1,307.6,309.917" transform="translate(93.661 99.947)" fill="#b1dade"/>
    <path id="Trazado_150017" data-name="Trazado 150017" d="M403.277,362.915H152.213a7.735,7.735,0,0,1,0-15.469H403.277a7.735,7.735,0,0,1,0,15.469" transform="translate(49.156 118.213)" fill="#a4a3ff"/>
    <path id="Trazado_150018" data-name="Trazado 150018" d="M389.9,393.573H221.554a16,16,0,0,1-16-16V269.658a16,16,0,0,1,16-16H389.9a16,16,0,0,1,16,16V377.575a16,16,0,0,1-16,16" transform="translate(69.937 86.303)" fill="#c5c4ff"/>
    <path id="Trazado_150019" data-name="Trazado 150019" d="M311.881,306.815A15.379,15.379,0,1,1,296.5,291.436a15.379,15.379,0,0,1,15.379,15.379" transform="translate(95.648 99.157)" fill="#a4a3ff"/>
    <path id="Trazado_150020" data-name="Trazado 150020" d="M576.745,370.967H29a7.469,7.469,0,0,1,0-14.938H576.745a7.469,7.469,0,0,1,0,14.938" transform="translate(7.325 121.134)" fill="#503c6f"/>
    <path id="Trazado_150021" data-name="Trazado 150021" d="M210.76,138.724A12.987,12.987,0,1,0,223.1,125.115a12.988,12.988,0,0,0-12.336,13.609" transform="translate(71.703 42.563)" fill="#f3725f"/>
    <path id="Trazado_150022" data-name="Trazado 150022" d="M135.478,211.072a35.806,35.806,0,0,1,14.992,32.006" transform="translate(46.094 71.814)" fill="none" stroke="#2d1a14" stroke-linecap="round" stroke-linejoin="round" stroke-width="1.184"/>
    <path id="Trazado_150023" data-name="Trazado 150023" d="M145.693,215.034c3.735,1.009,7.769-1.4,9.664-4.769s2.051-7.456,1.65-11.3" transform="translate(49.57 67.694)" fill="none" stroke="#2d1a14" stroke-linecap="round" stroke-linejoin="round" stroke-width="1.184"/>
    <path id="Trazado_150024" data-name="Trazado 150024" d="M147.8,186.973c9.223,88.074-63.358,137.263-68.765,140.8v.213s-.066-.042-.165-.107l-.165.107v-.213C73.3,324.236.716,275.047,9.939,186.973Z" transform="translate(3.106 63.615)" fill="#9ce5d6"/>
    <path id="Trazado_150025" data-name="Trazado 150025" d="M147.8,186.973c9.223,88.074-63.358,137.263-68.765,140.8v.213s-.066-.042-.165-.107l-.165.107v-.213C73.3,324.236.716,275.047,9.939,186.973Z" transform="translate(3.106 63.615)" fill="#9ce5d6"/>
    <path id="Trazado_150026" data-name="Trazado 150026" d="M126.4,196.43c7.013,66.962-48.171,104.361-52.283,107.049v.162l-.126-.082-.125.082v-.162c-4.112-2.687-59.3-40.086-52.283-107.049Z" transform="translate(7.135 66.832)" fill="#65c9ad"/>
    <path id="Trazado_150027" data-name="Trazado 150027" d="M49.908,242.984a16.191,16.191,0,0,0,4.659,11.391,15.66,15.66,0,0,0,9.194,4.6c.253.033.507.056.767.079a11.326,11.326,0,0,0,1.245.062,15.673,15.673,0,0,0,11.2-4.738,16.215,16.215,0,0,0-6.117-26.652,15.237,15.237,0,0,0-4.456-.846c-.146-.005-.294-.011-.446-.011a1.411,1.411,0,0,0-.151-.005h-.034a15.305,15.305,0,0,0-5.093.862c-.039.017-.084.028-.123.046a15.867,15.867,0,0,0-5.99,3.83,16.178,16.178,0,0,0-4.659,11.385" transform="translate(16.98 77.186)" fill="#9ce5d6"/>
    <path id="Trazado_150028" data-name="Trazado 150028" d="M57.945,217.615V235.63a5.226,5.226,0,0,0,1.493,3.658,5.063,5.063,0,0,0,3.6,1.514,5.136,5.136,0,0,0,5.081-5.025,1.086,1.086,0,0,0,.007-.147V217.615a5.143,5.143,0,0,0-5.088-5.171H63a4.931,4.931,0,0,0-2.226.545,4.591,4.591,0,0,0-.535.31,5.2,5.2,0,0,0-2.3,4.316" transform="translate(19.715 72.281)" fill="#9ce5d6"/>
    <path id="Trazado_150029" data-name="Trazado 150029" d="M49.908,247.751a16.191,16.191,0,0,0,4.659,11.391,15.66,15.66,0,0,0,9.194,4.6,17.5,17.5,0,0,0,7.1-28.28,17.7,17.7,0,0,0-1.787-1.7,16.557,16.557,0,0,0-3.267-2.13,17.2,17.2,0,0,0-2.022-.851V214.564a5.528,5.528,0,0,0-.271-1.713,4.589,4.589,0,0,0-.535.31,5.2,5.2,0,0,0-2.3,4.316v15.013a15.78,15.78,0,0,0-6.113,3.876,16.178,16.178,0,0,0-4.659,11.385" transform="translate(16.98 72.419)" fill="#4b4aef"/>
    <path id="Trazado_150030" data-name="Trazado 150030" d="M57.853,232.673a2.127,2.127,0,0,0,.123.422,2.955,2.955,0,0,0,5.724-1.036V214.313a2.977,2.977,0,0,0-.665-1.87,4.921,4.921,0,0,0-2.225.545,4.7,4.7,0,0,0-.536.311,5.2,5.2,0,0,0-2.3,4.314v15.013c-.039.017-.084.029-.123.046" transform="translate(19.684 72.281)" fill="#4b4aef"/>
    <path id="Trazado_150031" data-name="Trazado 150031" d="M87.268,206.863V166.68a20.451,20.451,0,1,0-40.9,0v40.183H32.732V166.68a34.085,34.085,0,0,1,68.17,0v40.183Z" transform="translate(11.137 45.113)" fill="#9ce5d6"/>
    <path id="Trazado_150032" data-name="Trazado 150032" d="M223.228,90.813a56.279,56.279,0,1,0-78.374,51.776v32.018a21.678,21.678,0,0,0,43.357,0V142.933a56.3,56.3,0,0,0,35.018-52.12" transform="translate(37.654 11.75)" fill="#fcb315"/>
    <path id="Trazado_150033" data-name="Trazado 150033" d="M153.752,34.548V196.194a21.75,21.75,0,0,0,19.8-21.591V142.929a56.287,56.287,0,0,0-19.8-108.381" transform="translate(52.312 11.754)" fill="#e09e0e"/>
    <path id="Trazado_150034" data-name="Trazado 150034" d="M136.8,132.205v20.01a21.678,21.678,0,1,0,43.355,0v-20.01Z" transform="translate(46.543 44.981)" fill="#4b4aef"/>
    <path id="Trazado_150035" data-name="Trazado 150035" d="M185.4,156.021H137.042a7.087,7.087,0,1,1,0-14.174H185.4a7.087,7.087,0,1,1,0,14.174" transform="translate(44.215 48.261)" fill="#7f79fb"/>
    <path id="Trazado_150036" data-name="Trazado 150036" d="M184.782,63.538a35.942,35.942,0,0,1,3.226,11.153" transform="translate(62.869 21.618)" fill="none" stroke="#fff" stroke-linecap="round" stroke-linejoin="round" stroke-width="4.977"/>
    <path id="Trazado_150037" data-name="Trazado 150037" d="M161.061,45.11a58.007,58.007,0,0,1,24.671,14.551" transform="translate(54.799 15.348)" fill="none" stroke="#fff" stroke-linecap="round" stroke-linejoin="round" stroke-width="4.977"/>
    <path id="Trazado_150038" data-name="Trazado 150038" d="M184.157,146.379H135.8a7.087,7.087,0,0,1,0-14.174h48.358a7.087,7.087,0,1,1,0,14.174" transform="translate(43.792 44.981)" fill="#4b4aef"/>
    <path id="Trazado_150039" data-name="Trazado 150039" d="M183.224,136.425H134.865a7.087,7.087,0,1,1,0-14.174h48.358a7.087,7.087,0,1,1,0,14.174" transform="translate(43.475 41.594)" fill="#7f79fb"/>
    <path id="Trazado_150040" data-name="Trazado 150040" d="M143.134,130.048V80.73l11.529,32.025,11.529-30.1v48.037" transform="translate(48.699 27.467)" fill="none" stroke="#2d1a14" stroke-linecap="round" stroke-linejoin="round" stroke-width="1.184"/>
    <path id="Trazado_150041" data-name="Trazado 150041" d="M169.022,79.447h0a8.968,8.968,0,1,1,8.968-8.968,8.994,8.994,0,0,1-8.968,8.968" transform="translate(54.456 20.929)" fill="#ffc757"/>
    <line id="Línea_206" data-name="Línea 206" y2="139.915" transform="translate(291.489 339.962)" fill="none" stroke="#2d1a14" stroke-linecap="round" stroke-linejoin="round" stroke-width="1.184"/>
    <path id="Trazado_150042" data-name="Trazado 150042" d="M122.2,124.12A20.823,20.823,0,1,1,101.378,103.3,20.823,20.823,0,0,1,122.2,124.12" transform="translate(27.408 35.145)" fill="#d4f6ff"/>
    <path id="Trazado_150043" data-name="Trazado 150043" d="M88.327,99.476a9.519,9.519,0,1,1-9.518-9.52,9.519,9.519,0,0,1,9.518,9.52" transform="translate(23.575 30.606)" fill="#d4f6ff"/>
    <path id="Trazado_150044" data-name="Trazado 150044" d="M52.558,325.353a9.519,9.519,0,1,1-9.52-9.518,9.519,9.519,0,0,1,9.52,9.518" transform="translate(11.405 107.458)" fill="#d4f6ff"/>
    <path id="Trazado_150045" data-name="Trazado 150045" d="M20.56,282.38a7.734,7.734,0,1,1-7.734-7.735,7.735,7.735,0,0,1,7.734,7.735" transform="translate(1.732 93.444)" fill="#d4f6ff"/>
    <path id="Trazado_150046" data-name="Trazado 150046" d="M306.783,177.555a48.627,48.627,0,1,0,55.5-40.6,48.626,48.626,0,0,0-55.5,40.6" transform="translate(104.18 46.398)" fill="#fcb315"/>
    <path id="Trazado_150047" data-name="Trazado 150047" d="M315.9,184.137l-25.576-7.418,26.192-7.42Z" transform="translate(98.778 57.601)" fill="#fcb315"/>
    <path id="Trazado_150048" data-name="Trazado 150048" d="M355.314,175.283a6.517,6.517,0,1,0,6.4-6.634,6.518,6.518,0,0,0-6.4,6.634" transform="translate(120.89 57.38)" fill="#fff"/>
    <path id="Trazado_150049" data-name="Trazado 150049" d="M338.433,176.141a6.518,6.518,0,1,0,5.814-7.153,6.517,6.517,0,0,0-5.814,7.153" transform="translate(115.135 57.484)" fill="#fff"/>
    <path id="Trazado_150050" data-name="Trazado 150050" d="M322.543,176.429a6.518,6.518,0,1,0,5.814-7.153,6.517,6.517,0,0,0-5.814,7.153" transform="translate(109.728 57.582)" fill="#fff"/>
    <path id="Trazado_150051" data-name="Trazado 150051" d="M426.589,264.484a14.33,14.33,0,1,1-14.33-14.33,14.33,14.33,0,0,1,14.33,14.33" transform="translate(135.389 85.111)" fill="#d4f6ff"/>
    <path id="Trazado_150052" data-name="Trazado 150052" d="M416.338,296.781a7.677,7.677,0,1,1-7.677-7.677,7.677,7.677,0,0,1,7.677,7.677" transform="translate(136.429 98.363)" fill="#d4f6ff"/>
    <path id="Trazado_150053" data-name="Trazado 150053" d="M412.9,36.772v82.8H388.957a17.284,17.284,0,0,0,.224-2.792,17.675,17.675,0,0,0-35.35,0,17.288,17.288,0,0,0,.222,2.792H330.107v-82.8Z" transform="translate(112.314 12.511)" fill="#4b4aef"/>
    <path id="Trazado_150054" data-name="Trazado 150054" d="M400.535,89.475h0A17.675,17.675,0,1,1,418.21,71.8a17.728,17.728,0,0,1-17.675,17.675" transform="translate(130.262 18.415)" fill="#4b4aef"/>
    <path id="Trazado_150055" data-name="Trazado 150055" d="M364.441,57.546h0a17.675,17.675,0,1,1,17.675-17.675,17.727,17.727,0,0,1-17.675,17.675" transform="translate(117.982 7.552)" fill="#4b4aef"/>
    <path id="Trazado_150056" data-name="Trazado 150056" d="M374.727,14.576v82.8H350.781A17.288,17.288,0,0,0,351,94.58a17.675,17.675,0,0,0-35.35,0,17.284,17.284,0,0,0,.222,2.792H291.931v-82.8Z" transform="translate(99.325 4.959)" fill="#e02dcc"/>
    <path id="Trazado_150057" data-name="Trazado 150057" d="M362.359,67.279h0A17.675,17.675,0,1,1,380.034,49.6a17.727,17.727,0,0,1-17.675,17.675" transform="translate(117.274 10.863)" fill="#e02dcc"/>
    <path id="Trazado_150058" data-name="Trazado 150058" d="M326.265,35.35h0A17.675,17.675,0,1,1,343.94,17.675,17.728,17.728,0,0,1,326.265,35.35" transform="translate(104.993)" fill="#e02dcc"/>
    <path id="Trazado_150059" data-name="Trazado 150059" d="M281.553,167.319h0a11.065,11.065,0,0,0,11.033-11.033V124.815a11.033,11.033,0,0,0-22.066,0v31.471a11.065,11.065,0,0,0,11.033,11.033" transform="translate(92.04 38.713)" fill="#d0d0ff"/>
    <path id="Trazado_150060" data-name="Trazado 150060" d="M275.079,172.4h0a15.214,15.214,0,0,0,15.169-15.169V125.2a15.169,15.169,0,0,0-30.339,0V157.23a15.214,15.214,0,0,0,15.17,15.169" transform="translate(88.43 37.437)" fill="#a4a3ff"/>
    <path id="Trazado_150061" data-name="Trazado 150061" d="M293.342,169.035q0,.551-.02,1.1c-.007.185-.013.373-.023.559-.007.115-.009.231-.02.347-.02.354-.046.7-.079,1.051-.009.106-.02.209-.029.315-.054.509-.117,1.019-.192,1.521q-.121.8-.279,1.6c-.036.188-.075.373-.115.559-.023.113-.05.224-.076.336-.1.45-.212.893-.334,1.336a32.436,32.436,0,0,1-1.025,3.155c-.092.248-.192.5-.291.741a34.14,34.14,0,0,1-3.369,6.27c-.291.424-.59.84-.894,1.246-.165.222-.334.437-.5.655-.284.357-.572.708-.87,1.055q-1.086,1.275-2.294,2.434-.565.541-1.151,1.055a33.757,33.757,0,0,1-5.175,3.738,33.286,33.286,0,0,1-4.356,2.152c-.331.135-.665.264-1,.387-.239.088-.477.174-.718.255-.129.046-.26.092-.393.135s-.245.079-.367.115c-.39.126-.78.245-1.177.354a33.611,33.611,0,0,1-7.323,1.178c-.555.025-1.1.039-1.652.039a33.822,33.822,0,0,1-33.686-32.075l-.39-7.966-1.147-23.43-.361-7.328-.5-10.113c-.027-.555-.04-1.111-.04-1.659,0-.271,0-.545.011-.818,0-.217.009-.429.023-.645s.019-.433.036-.647a1.171,1.171,0,0,1,.009-.155c.007-.133.017-.265.031-.4.009-.158.023-.314.039-.472.007-.1.016-.192.027-.288.023-.232.05-.462.079-.694.023-.2.05-.39.079-.586.013-.115.031-.228.05-.344.067-.453.146-.9.236-1.346.046-.251.1-.505.154-.753.05-.232.1-.46.159-.692s.113-.45.169-.675l.007-.019c.059-.225.122-.446.185-.671s.133-.45.2-.675.142-.446.216-.667c.149-.45.311-.9.478-1.339l.1-.252q.213-.547.444-1.086c.036-.083.072-.165.11-.249q.243-.555.507-1.1c.028-.058.055-.115.083-.172a33.685,33.685,0,0,1,61.093,1.051,33.368,33.368,0,0,1,2.881,12.047l2.4,48.838q.04.848.04,1.69" transform="translate(76.042 29.408)" fill="#f3725f"/>
    <path id="Trazado_150062" data-name="Trazado 150062" d="M293.342,165.777q0,.551-.02,1.1c-.007.185-.013.373-.023.559-.007.115-.009.231-.02.347-.02.354-.046.7-.079,1.051-.009.106-.02.209-.029.315-.054.509-.117,1.019-.192,1.521q-.121.8-.279,1.6c-.036.188-.075.373-.115.559-.023.113-.05.224-.076.336-.1.45-.212.9-.334,1.336a32.436,32.436,0,0,1-1.025,3.155c-.092.248-.192.5-.291.741a34.14,34.14,0,0,1-3.369,6.27c-.288.424-.59.836-.894,1.246-.165.222-.334.437-.5.655-.284.357-.572.708-.87,1.055q-1.086,1.275-2.294,2.434c-.377.361-.761.714-1.151,1.055a33.757,33.757,0,0,1-5.175,3.738A33.286,33.286,0,0,1,272.246,197c-.327.135-.662.264-1,.387-.239.088-.477.174-.718.255-.129.046-.26.092-.393.135s-.245.079-.367.115c-.39.126-.78.245-1.177.354a33.611,33.611,0,0,1-7.323,1.178c-.555.025-1.1.039-1.652.039a33.822,33.822,0,0,1-33.686-32.074l-.39-7.966-1.147-23.43-.361-7.328-.5-10.113c-.027-.555-.04-1.111-.04-1.659,0-.271,0-.545.011-.818,0-.217.009-.429.023-.645s.019-.433.036-.647a1.171,1.171,0,0,1,.009-.155c.007-.133.017-.265.031-.4.009-.158.023-.314.039-.472.007-.1.016-.192.027-.288.023-.232.05-.462.079-.694.023-.2.05-.39.079-.586.013-.115.031-.228.05-.344.07-.449.146-.9.236-1.346.046-.251.1-.505.154-.753.05-.232.1-.46.159-.692s.113-.45.169-.675l.007-.019c.059-.225.122-.446.185-.671s.133-.45.2-.675.142-.446.216-.667a33.9,33.9,0,0,1,5.6-10.337l.618,12.6,1.233,25.18a3.876,3.876,0,0,0,.279,1.276,22.888,22.888,0,0,1,12.3,7.953,34.992,34.992,0,0,1,6.4,13.46,3.738,3.738,0,0,0,1.312-.989c5.278-6.042,14.911-6.585,22.269-5.142,7.874,1.545,15.973,5.9,17.643,14.366a2.632,2.632,0,0,0,.48,1.068" transform="translate(76.042 32.666)" fill="#2d1a14"/>
    <path id="Trazado_150063" data-name="Trazado 150063" d="M246.945,147.867a13.5,13.5,0,0,0,26.9-1.076Z" transform="translate(84.019 49.943)" fill="#fff"/>
    <path id="Trazado_150064" data-name="Trazado 150064" d="M288.025,106.46a38.023,38.023,0,0,1-19.155,6.859c-11.534.985-23.069-1.683-34.646-1.74a9.826,9.826,0,0,0-2.794.284,3.927,3.927,0,0,0-1.3.635l-3.31,28.086-.629,5.33c-.153-2.049-.4-4.1-.718-6.153-.4-2.613-.9-5.23-1.434-7.838l-.5-10.113c-.025-.555-.039-1.111-.039-1.661,0-.271,0-.545.009-.816,0-.218.011-.43.023-.645s.02-.433.038-.649a1.177,1.177,0,0,1,.009-.155c.007-.131.016-.264.029-.4.011-.158.023-.314.04-.473.007-.1.016-.192.025-.287q.036-.348.08-.7c.023-.194.05-.39.079-.584.013-.117.029-.229.05-.344.066-.453.146-.9.235-1.346.047-.252.1-.507.155-.755.05-.231.1-.46.159-.692s.111-.449.168-.674l.007-.02c.06-.224.123-.446.185-.67s.133-.45.2-.675.142-.446.214-.667c.15-.452.312-.9.48-1.34.032-.084.067-.168.1-.252q.213-.547.442-1.084c.036-.083.074-.166.11-.249q.245-.555.508-1.1l.083-.173a33.685,33.685,0,0,1,61.093,1.052" transform="translate(76.042 29.408)" fill="#2d1a14"/>
    <path id="Trazado_150065" data-name="Trazado 150065" d="M222.375,136.553v-30.04a36.385,36.385,0,0,1,72.769,0v30.04h7.536v-30.04a43.92,43.92,0,0,0-87.84,0v30.04Z" transform="translate(73.096 21.296)" fill="#a4a3ff"/>
    <path id="Trazado_150066" data-name="Trazado 150066" d="M220.836,172.843h0a15.213,15.213,0,0,1-15.169-15.169V125.645a15.169,15.169,0,0,1,30.338,0v32.029a15.213,15.213,0,0,1-15.169,15.169" transform="translate(69.975 37.588)" fill="#a4a3ff"/>
    <path id="Trazado_150067" data-name="Trazado 150067" d="M213.445,167.763h0a11.065,11.065,0,0,1-11.033-11.033V125.259a11.033,11.033,0,1,1,22.066,0V156.73a11.065,11.065,0,0,1-11.033,11.033" transform="translate(68.868 38.864)" fill="#d0d0ff"/>
    <path id="Trazado_150068" data-name="Trazado 150068" d="M225.023,143.326s6.212,21.555,26.439,21.95" transform="translate(76.561 48.765)" fill="none" stroke="#a095f8" stroke-linecap="round" stroke-linejoin="round" stroke-width="1.775"/>
    <path id="Trazado_150069" data-name="Trazado 150069" d="M253.392,162.99a5.949,5.949,0,1,1-5.949-5.949,5.949,5.949,0,0,1,5.949,5.949" transform="translate(82.165 53.431)" fill="#bebbff"/>
    <path id="Trazado_150070" data-name="Trazado 150070" d="M229.214,48.894a9.519,9.519,0,1,1-9.518-9.52,9.519,9.519,0,0,1,9.518,9.52" transform="translate(71.509 13.396)" fill="#d4f6ff"/>
    <path id="Trazado_150071" data-name="Trazado 150071" d="M221.416,25.414A14.873,14.873,0,1,1,206.542,10.54a14.874,14.874,0,0,1,14.874,14.874" transform="translate(65.213 3.586)" fill="#d4f6ff"/>
    <path id="Trazado_150072" data-name="Trazado 150072" d="M201.07,185.305a6.544,6.544,0,1,1-6.544-6.544,6.544,6.544,0,0,1,6.544,6.544" transform="translate(63.958 60.821)" fill="#d4f6ff"/>
    <path id="Trazado_150073" data-name="Trazado 150073" d="M194.535,153.628a4.165,4.165,0,1,1-4.164-4.164,4.164,4.164,0,0,1,4.164,4.164" transform="translate(63.353 50.853)" fill="#d4f6ff"/>
    <path id="Trazado_150074" data-name="Trazado 150074" d="M455.783,237.947a13.5,13.5,0,1,1-13.5-13.5,13.5,13.5,0,0,1,13.5,13.5" transform="translate(145.885 76.364)" fill="#d4f6ff"/>
    <path id="Trazado_150075" data-name="Trazado 150075" d="M437.525,135.152a13.307,13.307,0,1,1-13.307-13.307,13.307,13.307,0,0,1,13.307,13.307" transform="translate(139.807 41.456)" fill="#d4f6ff"/>
    <path id="Trazado_150076" data-name="Trazado 150076" d="M22.189,165.055a7.139,7.139,0,1,1-7.139-7.139,7.139,7.139,0,0,1,7.139,7.139" transform="translate(2.691 53.729)" fill="#d4f6ff"/>
    <path id="Trazado_150077" data-name="Trazado 150077" d="M69.371,307.229a5.949,5.949,0,1,1-5.949-5.949,5.949,5.949,0,0,1,5.949,5.949" transform="translate(19.554 102.506)" fill="#503c6f"/>
    <path id="Trazado_150078" data-name="Trazado 150078" d="M69.371,327.649a5.949,5.949,0,1,1-5.949-5.949,5.949,5.949,0,0,1,5.949,5.949" transform="translate(19.554 109.454)" fill="#503c6f"/>
    <path id="Trazado_150079" data-name="Trazado 150079" d="M69.371,348.956a5.949,5.949,0,1,1-5.949-5.949,5.949,5.949,0,0,1,5.949,5.949" transform="translate(19.554 116.703)" fill="#503c6f"/>
    <path id="Trazado_150080" data-name="Trazado 150080" d="M392.766,213a5.949,5.949,0,1,1-5.949-5.949A5.949,5.949,0,0,1,392.766,213" transform="translate(129.584 70.445)" fill="#503c6f"/>
    <path id="Trazado_150081" data-name="Trazado 150081" d="M392.766,233.416a5.949,5.949,0,1,1-5.949-5.949,5.949,5.949,0,0,1,5.949,5.949" transform="translate(129.584 77.392)" fill="#503c6f"/>
    <path id="Trazado_150082" data-name="Trazado 150082" d="M392.766,254.723a5.949,5.949,0,1,1-5.949-5.949,5.949,5.949,0,0,1,5.949,5.949" transform="translate(129.584 84.642)" fill="#503c6f"/>
    <path id="Trazado_150083" data-name="Trazado 150083" d="M98.751,77.06A5.949,5.949,0,1,1,104.7,71.11a5.949,5.949,0,0,1-5.949,5.949" transform="translate(31.574 22.17)" fill="#e02dcc"/>
    <path id="Trazado_150084" data-name="Trazado 150084" d="M78.332,77.06a5.949,5.949,0,1,1,5.949-5.949,5.949,5.949,0,0,1-5.949,5.949" transform="translate(24.627 22.17)" fill="#e02dcc"/>
    <path id="Trazado_150085" data-name="Trazado 150085" d="M57.024,77.06a5.949,5.949,0,1,1,5.949-5.949,5.949,5.949,0,0,1-5.949,5.949" transform="translate(17.378 22.17)" fill="#e02dcc"/>
    <path id="Trazado_150086" data-name="Trazado 150086" d="M279.978,39.611a5.949,5.949,0,1,1,5.949-5.949,5.949,5.949,0,0,1-5.949,5.949" transform="translate(93.234 9.429)" fill="#ffde96"/>
    <path id="Trazado_150087" data-name="Trazado 150087" d="M259.558,39.611a5.949,5.949,0,1,1,5.949-5.949,5.949,5.949,0,0,1-5.949,5.949" transform="translate(86.287 9.429)" fill="#ffde96"/>
    <path id="Trazado_150088" data-name="Trazado 150088" d="M238.25,39.611a5.949,5.949,0,1,1,5.949-5.949,5.949,5.949,0,0,1-5.949,5.949" transform="translate(79.037 9.429)" fill="#ffde96"/>
    <path id="Trazado_150089" data-name="Trazado 150089" d="M158.055,271.681a13.046,13.046,0,0,0,.149,12.267c1.514,2.721,4.076,5.124,4.2,8.2.114,2.824-1.867,5.26-3.272,7.744s-2.13,5.934.034,7.852" transform="translate(53.28 92.435)" fill="none" stroke="#fff" stroke-miterlimit="10" stroke-width="0.75"/>
    <path id="Trazado_150090" data-name="Trazado 150090" d="M149.328,271.25a13.046,13.046,0,0,0,.149,12.267c1.514,2.721,4.077,5.124,4.2,8.2.114,2.824-1.866,5.26-3.272,7.744s-2.13,5.935.034,7.852" transform="translate(50.31 92.289)" fill="none" stroke="#fff" stroke-miterlimit="10" stroke-width="0.75"/>
    <path id="Trazado_150091" data-name="Trazado 150091" d="M166.943,271.758a13.049,13.049,0,0,0,.149,12.268c1.514,2.719,4.076,5.122,4.2,8.2.114,2.824-1.867,5.26-3.271,7.744s-2.13,5.935.034,7.852" transform="translate(56.304 92.462)" fill="none" stroke="#fff" stroke-miterlimit="10" stroke-width="0.75"/>
    <path id="Trazado_150092" data-name="Trazado 150092" d="M473.224,286.763a39.191,39.191,0,1,1-39.191-39.191,39.191,39.191,0,0,1,39.191,39.191" transform="translate(134.339 84.233)" fill="#a095f8"/>
    <path id="Trazado_150093" data-name="Trazado 150093" d="M73.691,110.486A36.846,36.846,0,1,1,36.846,73.64a36.846,36.846,0,0,1,36.846,36.846" transform="translate(0 25.055)" fill="#7f79fb"/>
    <path id="Trazado_150094" data-name="Trazado 150094" d="M18.774,99.786a3.182,3.182,0,0,1,2.4.883,3.061,3.061,0,0,1,.848,2.21,2.954,2.954,0,0,1-.848,2.164,3.223,3.223,0,0,1-2.4.859,3.231,3.231,0,0,1-2.359-.847,2.907,2.907,0,0,1-.871-2.177,3.061,3.061,0,0,1,.848-2.21,3.149,3.149,0,0,1,2.382-.883" transform="translate(5.289 33.951)" fill="#fff"/>
    <path id="Trazado_150095" data-name="Trazado 150095" d="M28.549,99.786a3.182,3.182,0,0,1,2.4.883,3.061,3.061,0,0,1,.848,2.21,2.954,2.954,0,0,1-.848,2.164,3.223,3.223,0,0,1-2.4.859,3.231,3.231,0,0,1-2.359-.847,2.907,2.907,0,0,1-.871-2.177,3.061,3.061,0,0,1,.848-2.21,3.149,3.149,0,0,1,2.382-.883" transform="translate(8.614 33.951)" fill="#fff"/>
    <path id="Trazado_150096" data-name="Trazado 150096" d="M38.325,99.786a3.182,3.182,0,0,1,2.4.883,3.061,3.061,0,0,1,.848,2.21,2.954,2.954,0,0,1-.848,2.164,3.751,3.751,0,0,1-4.763.012,2.907,2.907,0,0,1-.871-2.177,3.061,3.061,0,0,1,.848-2.21,3.149,3.149,0,0,1,2.382-.883" transform="translate(11.941 33.951)" fill="#fff"/>
    <path id="Trazado_150097" data-name="Trazado 150097" d="M475.93,148.181a40.939,40.939,0,1,1-40.94-40.94,40.939,40.939,0,0,1,40.94,40.94" transform="translate(134.07 36.487)" fill="#a095f8"/>
    <path id="Trazado_150098" data-name="Trazado 150098" d="M423.663,138.077a15.455,15.455,0,0,1-.771,5.353,10.409,10.409,0,0,1-2.747,3.883,28.723,28.723,0,0,0-2.686,2.739,7.07,7.07,0,0,0-1.07,1.817,5.468,5.468,0,0,0-.361,2.017q0,3.912,3.829,3.911a4.138,4.138,0,0,0,3.046-1.122,4.378,4.378,0,0,0,1.181-3.14h7.188a9.606,9.606,0,0,1-3.058,7.456q-3.011,2.676-8.232,2.675-5.3,0-8.232-2.526a8.989,8.989,0,0,1-2.934-7.205q0-3.958,3.8-7.767l2.412-2.316a6.378,6.378,0,0,0,1.728-2.34,10.264,10.264,0,0,0,.535-3.435Zm.9-7.6a3.561,3.561,0,0,1-1.145,2.726,4.432,4.432,0,0,1-5.768,0,3.556,3.556,0,0,1-1.145-2.726,3.617,3.617,0,0,1,1.107-2.726,4.534,4.534,0,0,1,5.843,0,3.617,3.617,0,0,1,1.107,2.726" transform="translate(139.094 43.104)" fill="#fff"/>
    <path id="Trazado_150099" data-name="Trazado 150099" d="M434.788,145.362a14.954,14.954,0,0,1,.846-5.551,11.368,11.368,0,0,1,3.1-4.069,15.847,15.847,0,0,0,3-3.262,5.117,5.117,0,0,0,.745-2.652q0-4.21-3.879-4.21a3.931,3.931,0,0,0-2.947,1.134,4.454,4.454,0,0,0-1.157,3.128h-7.21a9.586,9.586,0,0,1,3.071-7.442q3.021-2.688,8.244-2.689,5.271,0,8.181,2.55a9.075,9.075,0,0,1,2.91,7.206,8.769,8.769,0,0,1-.945,4,16.453,16.453,0,0,1-3.308,4.169l-2.013,1.917a6.827,6.827,0,0,0-2.164,4.257l-.1,1.518Zm-.721,7.622a3.617,3.617,0,0,1,1.131-2.738,4.429,4.429,0,0,1,5.794,0,3.864,3.864,0,0,1,.026,5.44,4.539,4.539,0,0,1-5.843,0,3.588,3.588,0,0,1-1.107-2.7" transform="translate(145.375 40.743)" fill="#fff"/>
    <path id="Trazado_150100" data-name="Trazado 150100" d="M425.673,269.55a3.563,3.563,0,0,1-1.143,2.729,4.442,4.442,0,0,1-5.77,0,3.563,3.563,0,0,1-1.143-2.729,3.623,3.623,0,0,1,1.106-2.726,4.541,4.541,0,0,1,5.845,0,3.623,3.623,0,0,1,1.106,2.726m-7.012,7.673h5.993l.82,25.092h-7.634Z" transform="translate(139.088 90.42)" fill="#fff"/>
    <path id="Trazado_150101" data-name="Trazado 150101" d="M432.27,288.192a4.035,4.035,0,0,1,2.923,1.068A3.645,3.645,0,0,1,436.3,292a3.608,3.608,0,0,1-1.106,2.71,4.493,4.493,0,0,1-5.819,0,3.6,3.6,0,0,1-1.107-2.71,3.644,3.644,0,0,1,1.107-2.723,3.961,3.961,0,0,1,2.9-1.082m2.985-3.93h-5.968l-.846-25.092H436.1Z" transform="translate(142.711 88.179)" fill="#fff"/>
    <path id="Trazado_150102" data-name="Trazado 150102" d="M84.378,28.428l4.779,8.738L97.9,41.945l-8.738,4.779-4.779,8.738L79.6,46.724,70.86,41.945,79.6,37.166Z" transform="translate(24.109 9.672)" fill="#a4a3ff"/>
    <path id="Trazado_150103" data-name="Trazado 150103" d="M259.887,2.36l2.751,5.031,5.033,2.753L262.638,12.9l-2.751,5.033L257.135,12.9,252.1,10.144l5.033-2.753Z" transform="translate(85.774 0.803)" fill="#a4a3ff"/>
    <path id="Trazado_150104" data-name="Trazado 150104" d="M435.3,71.186l4.3,7.867,7.867,4.3-7.867,4.3-4.3,7.869-4.3-7.869-7.867-4.3,7.867-4.3Z" transform="translate(143.963 24.22)" fill="#a4a3ff"/>
    <path id="Trazado_150105" data-name="Trazado 150105" d="M423.586,49.909l2.189,4,4,2.189-4,2.189-2.189,4-2.189-4-4-2.189,4-2.189Z" transform="translate(142.013 16.981)" fill="#a4a3ff"/>
    <path id="Trazado_150106" data-name="Trazado 150106" d="M320.474,112.541l4.428,8.1,8.1,4.428-8.1,4.429-4.428,8.1-4.428-8.1-8.1-4.429,8.1-4.428Z" transform="translate(104.775 38.29)" fill="#fff"/>
    <path id="Trazado_150107" data-name="Trazado 150107" d="M410.716,189.785l4.428,8.1,8.1,4.428-8.1,4.429-4.428,8.1-4.428-8.1-8.1-4.429,8.1-4.428Z" transform="translate(135.479 64.572)" fill="#fff"/>
    <path id="Trazado_150108" data-name="Trazado 150108" d="M369.489,218.3l4.428,8.1,8.1,4.43-8.1,4.428-4.428,8.1-4.428-8.1-8.1-4.428,8.1-4.43Z" transform="translate(121.452 74.272)" fill="#fff"/>
    <path id="Trazado_150109" data-name="Trazado 150109" d="M305.772,96.195l3.262,5.965L315,105.422l-5.965,3.262-3.262,5.964-3.262-5.964-5.965-3.262,5.965-3.262Z" transform="translate(100.895 32.729)" fill="#fff"/>
    <path id="Trazado_150110" data-name="Trazado 150110" d="M401.241,168.577l3.262,5.965,5.965,3.262-5.965,3.262-3.262,5.964-3.262-5.964-5.965-3.262,5.965-3.262Z" transform="translate(133.377 57.356)" fill="#fff"/>
    <path id="Trazado_150111" data-name="Trazado 150111" d="M99.471,324.762l3.262,5.965,5.965,3.262-5.965,3.262-3.262,5.964-3.262-5.964-5.965-3.262,5.965-3.262Z" transform="translate(30.704 110.496)" fill="#fff"/>
    <path id="Trazado_150112" data-name="Trazado 150112" d="M20.23,298.255l4.779,8.738,8.738,4.779-8.738,4.779-4.779,8.738-4.779-8.738-8.738-4.779,8.738-4.779Z" transform="translate(2.284 101.477)" fill="#a4a3ff"/>
    <circle id="Elipse_4898" data-name="Elipse 4898" cx="4.478" cy="4.478" r="4.478" transform="translate(331.568 275.417)" fill="none" stroke="#2d1a14" stroke-linecap="round" stroke-linejoin="round" stroke-width="1.11"/>
    <circle id="Elipse_4899" data-name="Elipse 4899" cx="4.478" cy="4.478" r="4.478" transform="translate(331.568 327.871)" fill="none" stroke="#2d1a14" stroke-linecap="round" stroke-linejoin="round" stroke-width="1.11"/>
    <circle id="Elipse_4900" data-name="Elipse 4900" cx="4.478" cy="4.478" r="4.478" transform="translate(331.568 301.73)" fill="none" stroke="#2d1a14" stroke-linecap="round" stroke-linejoin="round" stroke-width="1.11"/>
    <path id="Trazado_150113" data-name="Trazado 150113" d="M200.242,296.232v62.676a18.572,18.572,0,0,1-18.518,18.518H152.139a18.571,18.571,0,0,1-18.517-18.518V296.232Z" transform="translate(45.463 100.788)" fill="#ffde96"/>
    <path id="Trazado_150114" data-name="Trazado 150114" d="M108.94,326.147a21.976,21.976,0,1,1,21.976,21.976,22,22,0,0,1-21.976-21.976m13.417,0a8.559,8.559,0,1,0,8.559-8.559,8.569,8.569,0,0,0-8.559,8.559" transform="translate(37.065 103.49)" fill="#ffde96"/>
    <line id="Línea_207" data-name="Línea 207" y2="39.628" transform="translate(230.321 396.852)" fill="none" stroke="#fff" stroke-miterlimit="10" stroke-width="2"/>
    <rect id="Rectángulo_39159" data-name="Rectángulo 39159" width="18.549" height="26.982" transform="translate(219.36 434.794)" fill="#fff"/>
  </g>
</svg>
